solid OpenSCAD_Model
  facet normal -1 0 0
    outer loop
      vertex 0 -67 9
      vertex 0 -67 12
      vertex 0 1.9984e-15 9
    endloop
  endfacet
  facet normal -1 0 0
    outer loop
      vertex 0 1.9984e-15 9
      vertex 0 -67 12
      vertex 0 3 12
    endloop
  endfacet
  facet normal -1 0 0
    outer loop
      vertex 0 1.9984e-15 9
      vertex 0 3 12
      vertex 0 3 3
    endloop
  endfacet
  facet normal -1 0 0
    outer loop
      vertex 0 0 3
      vertex 0 12 0
      vertex 0 3 0
    endloop
  endfacet
  facet normal -1 0 0
    outer loop
      vertex 0 3 3
      vertex 0 12 3
      vertex 0 12 0
    endloop
  endfacet
  facet normal -1 0 0
    outer loop
      vertex 0 3 3
      vertex 0 12 0
      vertex 0 6.66134e-16 3
    endloop
  endfacet
  facet normal -1 0 0
    outer loop
      vertex 0 12 0
      vertex 0 0 3
      vertex 0 6.66134e-16 3
    endloop
  endfacet
  facet normal -1 0 0
    outer loop
      vertex 0 0 3
      vertex 0 3 0
      vertex 0 3 -6.66134e-16
    endloop
  endfacet
  facet normal -1 0 0
    outer loop
      vertex 0 1.9984e-15 9
      vertex 0 3 3
      vertex 0 6.66134e-16 3
    endloop
  endfacet
  facet normal -1 0 0
    outer loop
      vertex 0 0 3
      vertex 0 3 -6.66134e-16
      vertex 0 0 0
    endloop
  endfacet
  facet normal 0 -1 0
    outer loop
      vertex 0 -67 12
      vertex 0 -67 9
      vertex 25 -67 9
    endloop
  endfacet
  facet normal 0 -1 0
    outer loop
      vertex 25 -67 12
      vertex 0 -67 12
      vertex 25 -67 9
    endloop
  endfacet
  facet normal 0 0 -1
    outer loop
      vertex 0 -67 9
      vertex 0 1.9984e-15 9
      vertex 25 -67 9
    endloop
  endfacet
  facet normal 0 0 -1
    outer loop
      vertex 25 -67 9
      vertex 0 1.9984e-15 9
      vertex 25 1.9984e-15 9
    endloop
  endfacet
  facet normal 0 -1 2.22045e-16
    outer loop
      vertex 0 1.9984e-15 9
      vertex 0 6.66134e-16 3
      vertex 25 6.66134e-16 3
    endloop
  endfacet
  facet normal 0 -1 2.22045e-16
    outer loop
      vertex 25 1.9984e-15 9
      vertex 0 1.9984e-15 9
      vertex 25 6.66134e-16 3
    endloop
  endfacet
  facet normal 0 0 1
    outer loop
      vertex 0 6.66134e-16 3
      vertex 0 0 3
      vertex 25 0 3
    endloop
  endfacet
  facet normal 0 0 1
    outer loop
      vertex 25 6.66134e-16 3
      vertex 0 6.66134e-16 3
      vertex 25 0 3
    endloop
  endfacet
  facet normal 0 -1 0
    outer loop
      vertex 0 0 3
      vertex 0 0 0
      vertex 25 0 0
    endloop
  endfacet
  facet normal 0 -1 0
    outer loop
      vertex 25 0 3
      vertex 0 0 3
      vertex 25 0 0
    endloop
  endfacet
  facet normal 0 -2.22045e-16 -1
    outer loop
      vertex 0 0 0
      vertex 0 3 -6.66134e-16
      vertex 25 0 0
    endloop
  endfacet
  facet normal 0 -2.22045e-16 -1
    outer loop
      vertex 25 0 0
      vertex 0 3 -6.66134e-16
      vertex 25 3 -6.66134e-16
    endloop
  endfacet
  facet normal 0 1 -2.22045e-16
    outer loop
      vertex 0 3 -6.66134e-16
      vertex 0 3 0
      vertex 25 3 -6.66134e-16
    endloop
  endfacet
  facet normal 0 1 -2.22045e-16
    outer loop
      vertex 25 3 -6.66134e-16
      vertex 0 3 0
      vertex 25 3 0
    endloop
  endfacet
  facet normal 0 0 -1
    outer loop
      vertex 0 3 0
      vertex 0 12 0
      vertex 25 3 0
    endloop
  endfacet
  facet normal 0 0 -1
    outer loop
      vertex 25 3 0
      vertex 0 12 0
      vertex 25 12 0
    endloop
  endfacet
  facet normal 0 1 0
    outer loop
      vertex 0 12 0
      vertex 0 12 3
      vertex 25 12 0
    endloop
  endfacet
  facet normal 0 1 0
    outer loop
      vertex 25 12 0
      vertex 0 12 3
      vertex 25 12 3
    endloop
  endfacet
  facet normal 0 0 1
    outer loop
      vertex 0 12 3
      vertex 0 3 3
      vertex 25 3 3
    endloop
  endfacet
  facet normal 0 0 1
    outer loop
      vertex 25 12 3
      vertex 0 12 3
      vertex 25 3 3
    endloop
  endfacet
  facet normal 0 1 -2.22045e-16
    outer loop
      vertex 0 3 3
      vertex 0 3 12
      vertex 25 3 3
    endloop
  endfacet
  facet normal 0 1 -2.22045e-16
    outer loop
      vertex 25 3 3
      vertex 0 3 12
      vertex 25 3 12
    endloop
  endfacet
  facet normal 0 0 1
    outer loop
      vertex 8.85942 -38.145 12
      vertex 0 -67 12
      vertex 25 -67 12
    endloop
  endfacet
  facet normal 0 0 1
    outer loop
      vertex 16.9017 -34.5644 12
      vertex 17 -35.5 12
      vertex 25 -67 12
    endloop
  endfacet
  facet normal 0 0 1
    outer loop
      vertex 0 3 12
      vertex 0 -67 12
      vertex 8.09834 -36.4356 12
    endloop
  endfacet
  facet normal 0 0 1
    outer loop
      vertex 9.48891 -38.8442 12
      vertex 8.85942 -38.145 12
      vertex 25 -67 12
    endloop
  endfacet
  facet normal 0 0 1
    outer loop
      vertex 0 3 12
      vertex 8.09834 -36.4356 12
      vertex 8 -35.5 12
    endloop
  endfacet
  facet normal 0 0 1
    outer loop
      vertex 10.25 -39.3971 12
      vertex 9.48891 -38.8442 12
      vertex 25 -67 12
    endloop
  endfacet
  facet normal 0 0 1
    outer loop
      vertex 0 3 12
      vertex 8 -35.5 12
      vertex 8.09834 -34.5644 12
    endloop
  endfacet
  facet normal 0 0 1
    outer loop
      vertex 11.1094 -39.7798 12
      vertex 10.25 -39.3971 12
      vertex 25 -67 12
    endloop
  endfacet
  facet normal 0 0 1
    outer loop
      vertex 0 3 12
      vertex 8.09834 -34.5644 12
      vertex 8.38904 -33.6697 12
    endloop
  endfacet
  facet normal 0 0 1
    outer loop
      vertex 12.0296 -39.9753 12
      vertex 11.1094 -39.7798 12
      vertex 25 -67 12
    endloop
  endfacet
  facet normal 0 0 1
    outer loop
      vertex 0 3 12
      vertex 8.38904 -33.6697 12
      vertex 8.85942 -32.855 12
    endloop
  endfacet
  facet normal 0 0 1
    outer loop
      vertex 0 3 12
      vertex 8.85942 -32.855 12
      vertex 9.48891 -32.1558 12
    endloop
  endfacet
  facet normal 0 0 1
    outer loop
      vertex 0 3 12
      vertex 9.48891 -32.1558 12
      vertex 10.25 -31.6029 12
    endloop
  endfacet
  facet normal 0 0 1
    outer loop
      vertex 13.8906 -39.7798 12
      vertex 12.9704 -39.9753 12
      vertex 25 -67 12
    endloop
  endfacet
  facet normal 0 0 1
    outer loop
      vertex 0 3 12
      vertex 10.25 -31.6029 12
      vertex 11.1094 -31.2202 12
    endloop
  endfacet
  facet normal 0 0 1
    outer loop
      vertex 16.1406 -38.145 12
      vertex 15.5111 -38.8442 12
      vertex 25 -67 12
    endloop
  endfacet
  facet normal 0 0 1
    outer loop
      vertex 0 3 12
      vertex 11.1094 -31.2202 12
      vertex 12.0296 -31.0247 12
    endloop
  endfacet
  facet normal 0 0 1
    outer loop
      vertex 15.5111 -38.8442 12
      vertex 14.75 -39.3971 12
      vertex 25 -67 12
    endloop
  endfacet
  facet normal 0 0 1
    outer loop
      vertex 25 3 12
      vertex 0 3 12
      vertex 12.9704 -31.0247 12
    endloop
  endfacet
  facet normal 0 0 1
    outer loop
      vertex 12.9704 -39.9753 12
      vertex 12.0296 -39.9753 12
      vertex 25 -67 12
    endloop
  endfacet
  facet normal 0 0 1
    outer loop
      vertex 25 3 12
      vertex 12.9704 -31.0247 12
      vertex 13.8906 -31.2202 12
    endloop
  endfacet
  facet normal 0 0 1
    outer loop
      vertex 25 3 12
      vertex 13.8906 -31.2202 12
      vertex 14.75 -31.6029 12
    endloop
  endfacet
  facet normal 0 0 1
    outer loop
      vertex 16.611 -37.3303 12
      vertex 16.1406 -38.145 12
      vertex 25 -67 12
    endloop
  endfacet
  facet normal 0 0 1
    outer loop
      vertex 25 3 12
      vertex 14.75 -31.6029 12
      vertex 15.5111 -32.1558 12
    endloop
  endfacet
  facet normal 0 0 1
    outer loop
      vertex 16.9017 -36.4356 12
      vertex 16.611 -37.3303 12
      vertex 25 -67 12
    endloop
  endfacet
  facet normal 0 0 1
    outer loop
      vertex 25 3 12
      vertex 15.5111 -32.1558 12
      vertex 16.1406 -32.855 12
    endloop
  endfacet
  facet normal 0 0 1
    outer loop
      vertex 17 -35.5 12
      vertex 16.9017 -36.4356 12
      vertex 25 -67 12
    endloop
  endfacet
  facet normal 0 0 1
    outer loop
      vertex 25 3 12
      vertex 16.1406 -32.855 12
      vertex 16.611 -33.6697 12
    endloop
  endfacet
  facet normal 0 0 1
    outer loop
      vertex 25 3 12
      vertex 16.9017 -34.5644 12
      vertex 25 -67 12
    endloop
  endfacet
  facet normal 0 0 1
    outer loop
      vertex 25 3 12
      vertex 16.611 -33.6697 12
      vertex 16.9017 -34.5644 12
    endloop
  endfacet
  facet normal 0 0 1
    outer loop
      vertex 8.38904 -37.3303 12
      vertex 0 -67 12
      vertex 8.85942 -38.145 12
    endloop
  endfacet
  facet normal 0 0 1
    outer loop
      vertex 8.09834 -36.4356 12
      vertex 0 -67 12
      vertex 8.38904 -37.3303 12
    endloop
  endfacet
  facet normal 0 0 1
    outer loop
      vertex 14.75 -39.3971 12
      vertex 13.8906 -39.7798 12
      vertex 25 -67 12
    endloop
  endfacet
  facet normal 0 0 1
    outer loop
      vertex 12.0296 -31.0247 12
      vertex 12.9704 -31.0247 12
      vertex 0 3 12
    endloop
  endfacet
  facet normal 1 0 0
    outer loop
      vertex 25 6.66134e-16 3
      vertex 25 3 -6.66134e-16
      vertex 25 1.9984e-15 9
    endloop
  endfacet
  facet normal 1 0 0
    outer loop
      vertex 25 -67 12
      vertex 25 -67 9
      vertex 25 1.9984e-15 9
    endloop
  endfacet
  facet normal 1 0 0
    outer loop
      vertex 25 0 3
      vertex 25 0 0
      vertex 25 6.66134e-16 3
    endloop
  endfacet
  facet normal 1 0 0
    outer loop
      vertex 25 3 12
      vertex 25 -67 12
      vertex 25 1.9984e-15 9
    endloop
  endfacet
  facet normal 1 0 0
    outer loop
      vertex 25 0 0
      vertex 25 3 -6.66134e-16
      vertex 25 6.66134e-16 3
    endloop
  endfacet
  facet normal 1 0 0
    outer loop
      vertex 25 3 -6.66134e-16
      vertex 25 3 0
      vertex 25 1.9984e-15 9
    endloop
  endfacet
  facet normal 1 0 0
    outer loop
      vertex 25 3 3
      vertex 25 3 12
      vertex 25 1.9984e-15 9
    endloop
  endfacet
  facet normal 1 0 0
    outer loop
      vertex 25 3 0
      vertex 25 3 3
      vertex 25 1.9984e-15 9
    endloop
  endfacet
  facet normal 1 0 0
    outer loop
      vertex 25 3 0
      vertex 25 12 0
      vertex 25 3 3
    endloop
  endfacet
  facet normal 1 0 0
    outer loop
      vertex 25 12 3
      vertex 25 3 3
      vertex 25 12 0
    endloop
  endfacet
  facet normal -0.994522 -0.104529 0
    outer loop
      vertex 8 -35.5 12
      vertex 8.09834 -36.4356 12
      vertex 8 -35.5 16.5
    endloop
  endfacet
  facet normal -0.994522 -0.104529 0
    outer loop
      vertex 8 -35.5 16.5
      vertex 8.09834 -36.4356 12
      vertex 8.09834 -36.4356 16.5
    endloop
  endfacet
  facet normal -0.951057 -0.309016 0
    outer loop
      vertex 8.09834 -36.4356 12
      vertex 8.38904 -37.3303 12
      vertex 8.09834 -36.4356 16.5
    endloop
  endfacet
  facet normal -0.951057 -0.309016 0
    outer loop
      vertex 8.09834 -36.4356 16.5
      vertex 8.38904 -37.3303 12
      vertex 8.38904 -37.3303 16.5
    endloop
  endfacet
  facet normal -0.866025 -0.500001 0
    outer loop
      vertex 8.38904 -37.3303 12
      vertex 8.85942 -38.145 12
      vertex 8.38904 -37.3303 16.5
    endloop
  endfacet
  facet normal -0.866025 -0.500001 0
    outer loop
      vertex 8.38904 -37.3303 16.5
      vertex 8.85942 -38.145 12
      vertex 8.85942 -38.145 16.5
    endloop
  endfacet
  facet normal -0.743145 -0.66913 0
    outer loop
      vertex 8.85942 -38.145 12
      vertex 9.48891 -38.8442 12
      vertex 8.85942 -38.145 16.5
    endloop
  endfacet
  facet normal -0.743145 -0.66913 0
    outer loop
      vertex 8.85942 -38.145 16.5
      vertex 9.48891 -38.8442 12
      vertex 9.48891 -38.8442 16.5
    endloop
  endfacet
  facet normal -0.587785 -0.809017 0
    outer loop
      vertex 9.48891 -38.8442 16.5
      vertex 9.48891 -38.8442 12
      vertex 10.25 -39.3971 12
    endloop
  endfacet
  facet normal -0.587785 -0.809017 0
    outer loop
      vertex 10.25 -39.3971 16.5
      vertex 9.48891 -38.8442 16.5
      vertex 10.25 -39.3971 12
    endloop
  endfacet
  facet normal -0.406736 -0.913546 0
    outer loop
      vertex 10.25 -39.3971 16.5
      vertex 10.25 -39.3971 12
      vertex 11.1094 -39.7798 12
    endloop
  endfacet
  facet normal -0.406736 -0.913546 0
    outer loop
      vertex 11.1094 -39.7798 16.5
      vertex 10.25 -39.3971 16.5
      vertex 11.1094 -39.7798 12
    endloop
  endfacet
  facet normal -0.207913 -0.978147 0
    outer loop
      vertex 11.1094 -39.7798 16.5
      vertex 11.1094 -39.7798 12
      vertex 12.0296 -39.9753 12
    endloop
  endfacet
  facet normal -0.207913 -0.978147 0
    outer loop
      vertex 12.0296 -39.9753 16.5
      vertex 11.1094 -39.7798 16.5
      vertex 12.0296 -39.9753 12
    endloop
  endfacet
  facet normal 0 -1 0
    outer loop
      vertex 12.0296 -39.9753 16.5
      vertex 12.0296 -39.9753 12
      vertex 12.9704 -39.9753 12
    endloop
  endfacet
  facet normal 0 -1 0
    outer loop
      vertex 12.9704 -39.9753 16.5
      vertex 12.0296 -39.9753 16.5
      vertex 12.9704 -39.9753 12
    endloop
  endfacet
  facet normal 0.207913 -0.978147 0
    outer loop
      vertex 12.9704 -39.9753 16.5
      vertex 12.9704 -39.9753 12
      vertex 13.8906 -39.7798 12
    endloop
  endfacet
  facet normal 0.207913 -0.978147 0
    outer loop
      vertex 13.8906 -39.7798 16.5
      vertex 12.9704 -39.9753 16.5
      vertex 13.8906 -39.7798 12
    endloop
  endfacet
  facet normal 0.406736 -0.913546 0
    outer loop
      vertex 13.8906 -39.7798 16.5
      vertex 13.8906 -39.7798 12
      vertex 14.75 -39.3971 12
    endloop
  endfacet
  facet normal 0.406736 -0.913546 0
    outer loop
      vertex 14.75 -39.3971 16.5
      vertex 13.8906 -39.7798 16.5
      vertex 14.75 -39.3971 12
    endloop
  endfacet
  facet normal 0.587785 -0.809017 0
    outer loop
      vertex 14.75 -39.3971 16.5
      vertex 14.75 -39.3971 12
      vertex 15.5111 -38.8442 12
    endloop
  endfacet
  facet normal 0.587785 -0.809017 0
    outer loop
      vertex 15.5111 -38.8442 16.5
      vertex 14.75 -39.3971 16.5
      vertex 15.5111 -38.8442 12
    endloop
  endfacet
  facet normal 0.743145 -0.66913 0
    outer loop
      vertex 15.5111 -38.8442 16.5
      vertex 15.5111 -38.8442 12
      vertex 16.1406 -38.145 12
    endloop
  endfacet
  facet normal 0.743145 -0.66913 0
    outer loop
      vertex 16.1406 -38.145 16.5
      vertex 15.5111 -38.8442 16.5
      vertex 16.1406 -38.145 12
    endloop
  endfacet
  facet normal 0.866025 -0.500001 0
    outer loop
      vertex 16.1406 -38.145 16.5
      vertex 16.1406 -38.145 12
      vertex 16.611 -37.3303 12
    endloop
  endfacet
  facet normal 0.866025 -0.500001 0
    outer loop
      vertex 16.611 -37.3303 16.5
      vertex 16.1406 -38.145 16.5
      vertex 16.611 -37.3303 12
    endloop
  endfacet
  facet normal 0.951057 -0.309016 0
    outer loop
      vertex 16.611 -37.3303 16.5
      vertex 16.611 -37.3303 12
      vertex 16.9017 -36.4356 12
    endloop
  endfacet
  facet normal 0.951057 -0.309016 0
    outer loop
      vertex 16.9017 -36.4356 16.5
      vertex 16.611 -37.3303 16.5
      vertex 16.9017 -36.4356 12
    endloop
  endfacet
  facet normal 0.994522 -0.104529 0
    outer loop
      vertex 16.9017 -36.4356 16.5
      vertex 16.9017 -36.4356 12
      vertex 17 -35.5 12
    endloop
  endfacet
  facet normal 0.994522 -0.104529 0
    outer loop
      vertex 17 -35.5 16.5
      vertex 16.9017 -36.4356 16.5
      vertex 17 -35.5 12
    endloop
  endfacet
  facet normal 0.994522 0.104529 0
    outer loop
      vertex 17 -35.5 12
      vertex 16.9017 -34.5644 12
      vertex 16.9017 -34.5644 16.5
    endloop
  endfacet
  facet normal 0.994522 0.104529 0
    outer loop
      vertex 17 -35.5 16.5
      vertex 17 -35.5 12
      vertex 16.9017 -34.5644 16.5
    endloop
  endfacet
  facet normal 0.951057 0.309016 0
    outer loop
      vertex 16.9017 -34.5644 12
      vertex 16.611 -33.6697 12
      vertex 16.611 -33.6697 16.5
    endloop
  endfacet
  facet normal 0.951057 0.309016 0
    outer loop
      vertex 16.9017 -34.5644 16.5
      vertex 16.9017 -34.5644 12
      vertex 16.611 -33.6697 16.5
    endloop
  endfacet
  facet normal 0.866025 0.500001 0
    outer loop
      vertex 16.611 -33.6697 12
      vertex 16.1406 -32.855 12
      vertex 16.1406 -32.855 16.5
    endloop
  endfacet
  facet normal 0.866025 0.500001 0
    outer loop
      vertex 16.611 -33.6697 16.5
      vertex 16.611 -33.6697 12
      vertex 16.1406 -32.855 16.5
    endloop
  endfacet
  facet normal 0.743145 0.66913 0
    outer loop
      vertex 16.1406 -32.855 12
      vertex 15.5111 -32.1558 12
      vertex 15.5111 -32.1558 16.5
    endloop
  endfacet
  facet normal 0.743145 0.66913 0
    outer loop
      vertex 16.1406 -32.855 16.5
      vertex 16.1406 -32.855 12
      vertex 15.5111 -32.1558 16.5
    endloop
  endfacet
  facet normal 0.587785 0.809017 0
    outer loop
      vertex 14.75 -31.6029 12
      vertex 14.75 -31.6029 16.5
      vertex 15.5111 -32.1558 12
    endloop
  endfacet
  facet normal 0.587785 0.809017 0
    outer loop
      vertex 15.5111 -32.1558 12
      vertex 14.75 -31.6029 16.5
      vertex 15.5111 -32.1558 16.5
    endloop
  endfacet
  facet normal 0.406736 0.913546 0
    outer loop
      vertex 13.8906 -31.2202 12
      vertex 13.8906 -31.2202 16.5
      vertex 14.75 -31.6029 12
    endloop
  endfacet
  facet normal 0.406736 0.913546 0
    outer loop
      vertex 14.75 -31.6029 12
      vertex 13.8906 -31.2202 16.5
      vertex 14.75 -31.6029 16.5
    endloop
  endfacet
  facet normal 0.207913 0.978147 0
    outer loop
      vertex 12.9704 -31.0247 12
      vertex 12.9704 -31.0247 16.5
      vertex 13.8906 -31.2202 12
    endloop
  endfacet
  facet normal 0.207913 0.978147 0
    outer loop
      vertex 13.8906 -31.2202 12
      vertex 12.9704 -31.0247 16.5
      vertex 13.8906 -31.2202 16.5
    endloop
  endfacet
  facet normal 0 1 0
    outer loop
      vertex 12.0296 -31.0247 12
      vertex 12.0296 -31.0247 16.5
      vertex 12.9704 -31.0247 12
    endloop
  endfacet
  facet normal 0 1 0
    outer loop
      vertex 12.9704 -31.0247 12
      vertex 12.0296 -31.0247 16.5
      vertex 12.9704 -31.0247 16.5
    endloop
  endfacet
  facet normal -0.207913 0.978147 0
    outer loop
      vertex 11.1094 -31.2202 12
      vertex 11.1094 -31.2202 16.5
      vertex 12.0296 -31.0247 12
    endloop
  endfacet
  facet normal -0.207913 0.978147 0
    outer loop
      vertex 12.0296 -31.0247 12
      vertex 11.1094 -31.2202 16.5
      vertex 12.0296 -31.0247 16.5
    endloop
  endfacet
  facet normal -0.406736 0.913546 0
    outer loop
      vertex 10.25 -31.6029 12
      vertex 10.25 -31.6029 16.5
      vertex 11.1094 -31.2202 12
    endloop
  endfacet
  facet normal -0.406736 0.913546 0
    outer loop
      vertex 11.1094 -31.2202 12
      vertex 10.25 -31.6029 16.5
      vertex 11.1094 -31.2202 16.5
    endloop
  endfacet
  facet normal -0.587785 0.809017 0
    outer loop
      vertex 9.48891 -32.1558 12
      vertex 9.48891 -32.1558 16.5
      vertex 10.25 -31.6029 12
    endloop
  endfacet
  facet normal -0.587785 0.809017 0
    outer loop
      vertex 10.25 -31.6029 12
      vertex 9.48891 -32.1558 16.5
      vertex 10.25 -31.6029 16.5
    endloop
  endfacet
  facet normal -0.743145 0.66913 0
    outer loop
      vertex 8.85942 -32.855 12
      vertex 8.85942 -32.855 16.5
      vertex 9.48891 -32.1558 12
    endloop
  endfacet
  facet normal -0.743145 0.66913 0
    outer loop
      vertex 9.48891 -32.1558 12
      vertex 8.85942 -32.855 16.5
      vertex 9.48891 -32.1558 16.5
    endloop
  endfacet
  facet normal -0.866025 0.500001 0
    outer loop
      vertex 8.38904 -33.6697 12
      vertex 8.38904 -33.6697 16.5
      vertex 8.85942 -32.855 12
    endloop
  endfacet
  facet normal -0.866025 0.500001 0
    outer loop
      vertex 8.85942 -32.855 12
      vertex 8.38904 -33.6697 16.5
      vertex 8.85942 -32.855 16.5
    endloop
  endfacet
  facet normal -0.951057 0.309016 0
    outer loop
      vertex 8.09834 -34.5644 12
      vertex 8.09834 -34.5644 16.5
      vertex 8.38904 -33.6697 12
    endloop
  endfacet
  facet normal -0.951057 0.309016 0
    outer loop
      vertex 8.38904 -33.6697 12
      vertex 8.09834 -34.5644 16.5
      vertex 8.38904 -33.6697 16.5
    endloop
  endfacet
  facet normal -0.994522 0.104529 0
    outer loop
      vertex 8 -35.5 12
      vertex 8 -35.5 16.5
      vertex 8.09834 -34.5644 12
    endloop
  endfacet
  facet normal -0.994522 0.104529 0
    outer loop
      vertex 8.09834 -34.5644 12
      vertex 8 -35.5 16.5
      vertex 8.09834 -34.5644 16.5
    endloop
  endfacet
  facet normal 0 0 -1
    outer loop
      vertex 7.24711 -33.1613 16.5
      vertex 7.84815 -32.1202 16.5
      vertex 6.87565 -34.3045 16.5
    endloop
  endfacet
  facet normal 0 0 -1
    outer loop
      vertex 6.87565 -34.3045 16.5
      vertex 7.84815 -32.1202 16.5
      vertex 8.6525 -31.2269 16.5
    endloop
  endfacet
  facet normal 0 0 -1
    outer loop
      vertex 6.87565 -34.3045 16.5
      vertex 8.6525 -31.2269 16.5
      vertex 9.625 -30.5204 16.5
    endloop
  endfacet
  facet normal 0 0 -1
    outer loop
      vertex 6.87565 -34.3045 16.5
      vertex 9.625 -30.5204 16.5
      vertex 10.7232 -30.0314 16.5
    endloop
  endfacet
  facet normal 0 0 -1
    outer loop
      vertex 6.87565 -34.3045 16.5
      vertex 10.7232 -30.0314 16.5
      vertex 11.899 -29.7815 16.5
    endloop
  endfacet
  facet normal 0 0 -1
    outer loop
      vertex 11.1094 -31.2202 16.5
      vertex 11.899 -29.7815 16.5
      vertex 13.101 -29.7815 16.5
    endloop
  endfacet
  facet normal 0 0 -1
    outer loop
      vertex 12.0296 -31.0247 16.5
      vertex 13.101 -29.7815 16.5
      vertex 14.2768 -30.0314 16.5
    endloop
  endfacet
  facet normal 0 0 -1
    outer loop
      vertex 12.9704 -31.0247 16.5
      vertex 14.2768 -30.0314 16.5
      vertex 15.375 -30.5204 16.5
    endloop
  endfacet
  facet normal 0 0 -1
    outer loop
      vertex 14.75 -31.6029 16.5
      vertex 15.375 -30.5204 16.5
      vertex 16.3475 -31.2269 16.5
    endloop
  endfacet
  facet normal 0 0 -1
    outer loop
      vertex 15.5111 -32.1558 16.5
      vertex 16.3475 -31.2269 16.5
      vertex 17.1518 -32.1202 16.5
    endloop
  endfacet
  facet normal 0 0 -1
    outer loop
      vertex 16.1406 -32.855 16.5
      vertex 17.1518 -32.1202 16.5
      vertex 17.7529 -33.1613 16.5
    endloop
  endfacet
  facet normal 0 0 -1
    outer loop
      vertex 16.611 -33.6697 16.5
      vertex 17.7529 -33.1613 16.5
      vertex 18.1243 -34.3045 16.5
    endloop
  endfacet
  facet normal 0 0 -1
    outer loop
      vertex 16.9017 -34.5644 16.5
      vertex 18.1243 -34.3045 16.5
      vertex 18.25 -35.5 16.5
    endloop
  endfacet
  facet normal 0 0 -1
    outer loop
      vertex 17 -35.5 16.5
      vertex 18.25 -35.5 16.5
      vertex 18.1243 -36.6955 16.5
    endloop
  endfacet
  facet normal 0 0 -1
    outer loop
      vertex 16.611 -37.3303 16.5
      vertex 18.1243 -36.6955 16.5
      vertex 17.7529 -37.8387 16.5
    endloop
  endfacet
  facet normal 0 0 -1
    outer loop
      vertex 16.1406 -38.145 16.5
      vertex 17.7529 -37.8387 16.5
      vertex 17.1518 -38.8798 16.5
    endloop
  endfacet
  facet normal 0 0 -1
    outer loop
      vertex 15.5111 -38.8442 16.5
      vertex 17.1518 -38.8798 16.5
      vertex 16.3475 -39.7731 16.5
    endloop
  endfacet
  facet normal 0 0 -1
    outer loop
      vertex 14.75 -39.3971 16.5
      vertex 16.3475 -39.7731 16.5
      vertex 15.375 -40.4796 16.5
    endloop
  endfacet
  facet normal 0 0 -1
    outer loop
      vertex 13.8906 -39.7798 16.5
      vertex 15.375 -40.4796 16.5
      vertex 14.2768 -40.9686 16.5
    endloop
  endfacet
  facet normal 0 0 -1
    outer loop
      vertex 12.0296 -39.9753 16.5
      vertex 14.2768 -40.9686 16.5
      vertex 13.101 -41.2185 16.5
    endloop
  endfacet
  facet normal 0 0 -1
    outer loop
      vertex 11.1094 -39.7798 16.5
      vertex 13.101 -41.2185 16.5
      vertex 11.899 -41.2185 16.5
    endloop
  endfacet
  facet normal 0 0 -1
    outer loop
      vertex 10.25 -39.3971 16.5
      vertex 11.899 -41.2185 16.5
      vertex 10.7232 -40.9686 16.5
    endloop
  endfacet
  facet normal 0 0 -1
    outer loop
      vertex 8.85942 -38.145 16.5
      vertex 10.7232 -40.9686 16.5
      vertex 9.625 -40.4796 16.5
    endloop
  endfacet
  facet normal 0 0 -1
    outer loop
      vertex 6.87565 -34.3045 16.5
      vertex 9.625 -40.4796 16.5
      vertex 8.6525 -39.7731 16.5
    endloop
  endfacet
  facet normal 0 0 -1
    outer loop
      vertex 6.87565 -34.3045 16.5
      vertex 8.6525 -39.7731 16.5
      vertex 7.84815 -38.8798 16.5
    endloop
  endfacet
  facet normal 0 0 -1
    outer loop
      vertex 6.87565 -34.3045 16.5
      vertex 7.84815 -38.8798 16.5
      vertex 7.24711 -37.8387 16.5
    endloop
  endfacet
  facet normal 0 0 -1
    outer loop
      vertex 6.87565 -34.3045 16.5
      vertex 7.24711 -37.8387 16.5
      vertex 6.87565 -36.6955 16.5
    endloop
  endfacet
  facet normal 0 0 -1
    outer loop
      vertex 6.87565 -34.3045 16.5
      vertex 6.87565 -36.6955 16.5
      vertex 6.75 -35.5 16.5
    endloop
  endfacet
  facet normal 0 0 -1
    outer loop
      vertex 8.85942 -38.145 16.5
      vertex 9.625 -40.4796 16.5
      vertex 8.38904 -37.3303 16.5
    endloop
  endfacet
  facet normal 0 0 -1
    outer loop
      vertex 6.87565 -34.3045 16.5
      vertex 8.09834 -36.4356 16.5
      vertex 8.38904 -37.3303 16.5
    endloop
  endfacet
  facet normal 0 0 -1
    outer loop
      vertex 6.87565 -34.3045 16.5
      vertex 8.38904 -37.3303 16.5
      vertex 9.625 -40.4796 16.5
    endloop
  endfacet
  facet normal 0 0 -1
    outer loop
      vertex 9.48891 -38.8442 16.5
      vertex 10.7232 -40.9686 16.5
      vertex 8.85942 -38.145 16.5
    endloop
  endfacet
  facet normal 0 0 -1
    outer loop
      vertex 10.25 -39.3971 16.5
      vertex 10.7232 -40.9686 16.5
      vertex 9.48891 -38.8442 16.5
    endloop
  endfacet
  facet normal 0 0 -1
    outer loop
      vertex 12.9704 -39.9753 16.5
      vertex 14.2768 -40.9686 16.5
      vertex 12.0296 -39.9753 16.5
    endloop
  endfacet
  facet normal 0 0 -1
    outer loop
      vertex 14.75 -39.3971 16.5
      vertex 15.375 -40.4796 16.5
      vertex 13.8906 -39.7798 16.5
    endloop
  endfacet
  facet normal 0 0 -1
    outer loop
      vertex 15.5111 -38.8442 16.5
      vertex 16.3475 -39.7731 16.5
      vertex 14.75 -39.3971 16.5
    endloop
  endfacet
  facet normal 0 0 -1
    outer loop
      vertex 16.1406 -38.145 16.5
      vertex 17.1518 -38.8798 16.5
      vertex 15.5111 -38.8442 16.5
    endloop
  endfacet
  facet normal 0 0 -1
    outer loop
      vertex 16.611 -37.3303 16.5
      vertex 17.7529 -37.8387 16.5
      vertex 16.1406 -38.145 16.5
    endloop
  endfacet
  facet normal 0 0 -1
    outer loop
      vertex 16.9017 -36.4356 16.5
      vertex 18.1243 -36.6955 16.5
      vertex 16.611 -37.3303 16.5
    endloop
  endfacet
  facet normal 0 0 -1
    outer loop
      vertex 17 -35.5 16.5
      vertex 18.1243 -36.6955 16.5
      vertex 16.9017 -36.4356 16.5
    endloop
  endfacet
  facet normal 0 0 -1
    outer loop
      vertex 16.9017 -34.5644 16.5
      vertex 18.25 -35.5 16.5
      vertex 17 -35.5 16.5
    endloop
  endfacet
  facet normal 0 0 -1
    outer loop
      vertex 16.611 -33.6697 16.5
      vertex 18.1243 -34.3045 16.5
      vertex 16.9017 -34.5644 16.5
    endloop
  endfacet
  facet normal 0 0 -1
    outer loop
      vertex 16.1406 -32.855 16.5
      vertex 17.7529 -33.1613 16.5
      vertex 16.611 -33.6697 16.5
    endloop
  endfacet
  facet normal 0 0 -1
    outer loop
      vertex 15.5111 -32.1558 16.5
      vertex 17.1518 -32.1202 16.5
      vertex 16.1406 -32.855 16.5
    endloop
  endfacet
  facet normal 0 0 -1
    outer loop
      vertex 14.75 -31.6029 16.5
      vertex 16.3475 -31.2269 16.5
      vertex 15.5111 -32.1558 16.5
    endloop
  endfacet
  facet normal 0 0 -1
    outer loop
      vertex 13.8906 -31.2202 16.5
      vertex 15.375 -30.5204 16.5
      vertex 14.75 -31.6029 16.5
    endloop
  endfacet
  facet normal 0 0 -1
    outer loop
      vertex 12.9704 -31.0247 16.5
      vertex 15.375 -30.5204 16.5
      vertex 13.8906 -31.2202 16.5
    endloop
  endfacet
  facet normal 0 0 -1
    outer loop
      vertex 12.0296 -31.0247 16.5
      vertex 14.2768 -30.0314 16.5
      vertex 12.9704 -31.0247 16.5
    endloop
  endfacet
  facet normal 0 0 -1
    outer loop
      vertex 11.1094 -31.2202 16.5
      vertex 13.101 -29.7815 16.5
      vertex 12.0296 -31.0247 16.5
    endloop
  endfacet
  facet normal 0 0 -1
    outer loop
      vertex 10.25 -31.6029 16.5
      vertex 11.899 -29.7815 16.5
      vertex 11.1094 -31.2202 16.5
    endloop
  endfacet
  facet normal 0 0 -1
    outer loop
      vertex 8.85942 -32.855 16.5
      vertex 6.87565 -34.3045 16.5
      vertex 9.48891 -32.1558 16.5
    endloop
  endfacet
  facet normal 0 0 -1
    outer loop
      vertex 9.48891 -32.1558 16.5
      vertex 11.899 -29.7815 16.5
      vertex 10.25 -31.6029 16.5
    endloop
  endfacet
  facet normal 0 0 -1
    outer loop
      vertex 6.87565 -34.3045 16.5
      vertex 11.899 -29.7815 16.5
      vertex 9.48891 -32.1558 16.5
    endloop
  endfacet
  facet normal 0 0 -1
    outer loop
      vertex 8.38904 -33.6697 16.5
      vertex 6.87565 -34.3045 16.5
      vertex 8.85942 -32.855 16.5
    endloop
  endfacet
  facet normal 0 0 -1
    outer loop
      vertex 8.09834 -34.5644 16.5
      vertex 6.87565 -34.3045 16.5
      vertex 8.38904 -33.6697 16.5
    endloop
  endfacet
  facet normal 0 0 -1
    outer loop
      vertex 8 -35.5 16.5
      vertex 6.87565 -34.3045 16.5
      vertex 8.09834 -34.5644 16.5
    endloop
  endfacet
  facet normal 0 0 -1
    outer loop
      vertex 8.09834 -36.4356 16.5
      vertex 6.87565 -34.3045 16.5
      vertex 8 -35.5 16.5
    endloop
  endfacet
  facet normal 0 0 -1
    outer loop
      vertex 13.8906 -39.7798 16.5
      vertex 14.2768 -40.9686 16.5
      vertex 12.9704 -39.9753 16.5
    endloop
  endfacet
  facet normal 0 0 -1
    outer loop
      vertex 12.0296 -39.9753 16.5
      vertex 13.101 -41.2185 16.5
      vertex 11.1094 -39.7798 16.5
    endloop
  endfacet
  facet normal 0 0 -1
    outer loop
      vertex 11.1094 -39.7798 16.5
      vertex 11.899 -41.2185 16.5
      vertex 10.25 -39.3971 16.5
    endloop
  endfacet
  facet normal -0.951056 0.309017 0
    outer loop
      vertex 6.87565 -34.3045 16.5
      vertex 6.87565 -34.3045 20.5
      vertex 7.24711 -33.1613 16.5
    endloop
  endfacet
  facet normal -0.951056 0.309017 0
    outer loop
      vertex 7.24711 -33.1613 16.5
      vertex 6.87565 -34.3045 20.5
      vertex 7.24711 -33.1613 20.5
    endloop
  endfacet
  facet normal -0.994522 0.104528 0
    outer loop
      vertex 6.75 -35.5 16.5
      vertex 6.75 -35.5 20.5
      vertex 6.87565 -34.3045 16.5
    endloop
  endfacet
  facet normal -0.994522 0.104528 0
    outer loop
      vertex 6.87565 -34.3045 16.5
      vertex 6.75 -35.5 20.5
      vertex 6.87565 -34.3045 20.5
    endloop
  endfacet
  facet normal -0.994522 -0.104528 0
    outer loop
      vertex 6.75 -35.5 16.5
      vertex 6.87565 -36.6955 16.5
      vertex 6.75 -35.5 20.5
    endloop
  endfacet
  facet normal -0.994522 -0.104528 0
    outer loop
      vertex 6.75 -35.5 20.5
      vertex 6.87565 -36.6955 16.5
      vertex 6.87565 -36.6955 20.5
    endloop
  endfacet
  facet normal -0.951056 -0.309017 0
    outer loop
      vertex 6.87565 -36.6955 16.5
      vertex 7.24711 -37.8387 16.5
      vertex 6.87565 -36.6955 20.5
    endloop
  endfacet
  facet normal -0.951056 -0.309017 0
    outer loop
      vertex 6.87565 -36.6955 20.5
      vertex 7.24711 -37.8387 16.5
      vertex 7.24711 -37.8387 20.5
    endloop
  endfacet
  facet normal -0.866026 -0.5 0
    outer loop
      vertex 7.24711 -37.8387 16.5
      vertex 7.84815 -38.8798 16.5
      vertex 7.24711 -37.8387 20.5
    endloop
  endfacet
  facet normal -0.866026 -0.5 0
    outer loop
      vertex 7.24711 -37.8387 20.5
      vertex 7.84815 -38.8798 16.5
      vertex 7.84815 -38.8798 20.5
    endloop
  endfacet
  facet normal -0.743145 -0.669131 0
    outer loop
      vertex 7.84815 -38.8798 16.5
      vertex 8.6525 -39.7731 16.5
      vertex 7.84815 -38.8798 20.5
    endloop
  endfacet
  facet normal -0.743145 -0.669131 0
    outer loop
      vertex 7.84815 -38.8798 20.5
      vertex 8.6525 -39.7731 16.5
      vertex 8.6525 -39.7731 20.5
    endloop
  endfacet
  facet normal -0.587785 -0.809017 0
    outer loop
      vertex 8.6525 -39.7731 20.5
      vertex 8.6525 -39.7731 16.5
      vertex 9.625 -40.4796 16.5
    endloop
  endfacet
  facet normal -0.587785 -0.809017 0
    outer loop
      vertex 9.625 -40.4796 20.5
      vertex 8.6525 -39.7731 20.5
      vertex 9.625 -40.4796 16.5
    endloop
  endfacet
  facet normal -0.406737 -0.913545 0
    outer loop
      vertex 9.625 -40.4796 20.5
      vertex 9.625 -40.4796 16.5
      vertex 10.7232 -40.9686 16.5
    endloop
  endfacet
  facet normal -0.406737 -0.913545 0
    outer loop
      vertex 10.7232 -40.9686 20.5
      vertex 9.625 -40.4796 20.5
      vertex 10.7232 -40.9686 16.5
    endloop
  endfacet
  facet normal -0.207912 -0.978148 0
    outer loop
      vertex 10.7232 -40.9686 20.5
      vertex 10.7232 -40.9686 16.5
      vertex 11.899 -41.2185 16.5
    endloop
  endfacet
  facet normal -0.207912 -0.978148 0
    outer loop
      vertex 11.899 -41.2185 20.5
      vertex 10.7232 -40.9686 20.5
      vertex 11.899 -41.2185 16.5
    endloop
  endfacet
  facet normal 0 -1 0
    outer loop
      vertex 11.899 -41.2185 20.5
      vertex 11.899 -41.2185 16.5
      vertex 13.101 -41.2185 16.5
    endloop
  endfacet
  facet normal 0 -1 0
    outer loop
      vertex 13.101 -41.2185 20.5
      vertex 11.899 -41.2185 20.5
      vertex 13.101 -41.2185 16.5
    endloop
  endfacet
  facet normal 0.207912 -0.978148 0
    outer loop
      vertex 13.101 -41.2185 20.5
      vertex 13.101 -41.2185 16.5
      vertex 14.2768 -40.9686 16.5
    endloop
  endfacet
  facet normal 0.207912 -0.978148 0
    outer loop
      vertex 14.2768 -40.9686 20.5
      vertex 13.101 -41.2185 20.5
      vertex 14.2768 -40.9686 16.5
    endloop
  endfacet
  facet normal 0.406737 -0.913545 0
    outer loop
      vertex 14.2768 -40.9686 20.5
      vertex 14.2768 -40.9686 16.5
      vertex 15.375 -40.4796 16.5
    endloop
  endfacet
  facet normal 0.406737 -0.913545 0
    outer loop
      vertex 15.375 -40.4796 20.5
      vertex 14.2768 -40.9686 20.5
      vertex 15.375 -40.4796 16.5
    endloop
  endfacet
  facet normal 0.587785 -0.809017 0
    outer loop
      vertex 15.375 -40.4796 20.5
      vertex 15.375 -40.4796 16.5
      vertex 16.3475 -39.7731 16.5
    endloop
  endfacet
  facet normal 0.587785 -0.809017 0
    outer loop
      vertex 16.3475 -39.7731 20.5
      vertex 15.375 -40.4796 20.5
      vertex 16.3475 -39.7731 16.5
    endloop
  endfacet
  facet normal 0.743145 -0.669131 0
    outer loop
      vertex 16.3475 -39.7731 20.5
      vertex 16.3475 -39.7731 16.5
      vertex 17.1518 -38.8798 16.5
    endloop
  endfacet
  facet normal 0.743145 -0.669131 0
    outer loop
      vertex 17.1518 -38.8798 20.5
      vertex 16.3475 -39.7731 20.5
      vertex 17.1518 -38.8798 16.5
    endloop
  endfacet
  facet normal 0.866026 -0.5 0
    outer loop
      vertex 17.1518 -38.8798 20.5
      vertex 17.1518 -38.8798 16.5
      vertex 17.7529 -37.8387 16.5
    endloop
  endfacet
  facet normal 0.866026 -0.5 0
    outer loop
      vertex 17.7529 -37.8387 20.5
      vertex 17.1518 -38.8798 20.5
      vertex 17.7529 -37.8387 16.5
    endloop
  endfacet
  facet normal 0.951056 -0.309017 0
    outer loop
      vertex 17.7529 -37.8387 20.5
      vertex 17.7529 -37.8387 16.5
      vertex 18.1243 -36.6955 16.5
    endloop
  endfacet
  facet normal 0.951056 -0.309017 0
    outer loop
      vertex 18.1243 -36.6955 20.5
      vertex 17.7529 -37.8387 20.5
      vertex 18.1243 -36.6955 16.5
    endloop
  endfacet
  facet normal 0.994522 -0.104528 0
    outer loop
      vertex 18.1243 -36.6955 20.5
      vertex 18.1243 -36.6955 16.5
      vertex 18.25 -35.5 16.5
    endloop
  endfacet
  facet normal 0.994522 -0.104528 0
    outer loop
      vertex 18.25 -35.5 20.5
      vertex 18.1243 -36.6955 20.5
      vertex 18.25 -35.5 16.5
    endloop
  endfacet
  facet normal 0.994522 0.104528 0
    outer loop
      vertex 18.25 -35.5 16.5
      vertex 18.1243 -34.3045 16.5
      vertex 18.1243 -34.3045 20.5
    endloop
  endfacet
  facet normal 0.994522 0.104528 0
    outer loop
      vertex 18.25 -35.5 20.5
      vertex 18.25 -35.5 16.5
      vertex 18.1243 -34.3045 20.5
    endloop
  endfacet
  facet normal 0.951056 0.309017 0
    outer loop
      vertex 18.1243 -34.3045 16.5
      vertex 17.7529 -33.1613 16.5
      vertex 17.7529 -33.1613 20.5
    endloop
  endfacet
  facet normal 0.951056 0.309017 0
    outer loop
      vertex 18.1243 -34.3045 20.5
      vertex 18.1243 -34.3045 16.5
      vertex 17.7529 -33.1613 20.5
    endloop
  endfacet
  facet normal 0.866026 0.5 0
    outer loop
      vertex 17.7529 -33.1613 16.5
      vertex 17.1518 -32.1202 16.5
      vertex 17.1518 -32.1202 20.5
    endloop
  endfacet
  facet normal 0.866026 0.5 0
    outer loop
      vertex 17.7529 -33.1613 20.5
      vertex 17.7529 -33.1613 16.5
      vertex 17.1518 -32.1202 20.5
    endloop
  endfacet
  facet normal 0.743145 0.669131 0
    outer loop
      vertex 17.1518 -32.1202 16.5
      vertex 16.3475 -31.2269 16.5
      vertex 16.3475 -31.2269 20.5
    endloop
  endfacet
  facet normal 0.743145 0.669131 0
    outer loop
      vertex 17.1518 -32.1202 20.5
      vertex 17.1518 -32.1202 16.5
      vertex 16.3475 -31.2269 20.5
    endloop
  endfacet
  facet normal 0.587785 0.809017 0
    outer loop
      vertex 15.375 -30.5204 16.5
      vertex 15.375 -30.5204 20.5
      vertex 16.3475 -31.2269 16.5
    endloop
  endfacet
  facet normal 0.587785 0.809017 0
    outer loop
      vertex 16.3475 -31.2269 16.5
      vertex 15.375 -30.5204 20.5
      vertex 16.3475 -31.2269 20.5
    endloop
  endfacet
  facet normal 0.406737 0.913545 0
    outer loop
      vertex 14.2768 -30.0314 16.5
      vertex 14.2768 -30.0314 20.5
      vertex 15.375 -30.5204 16.5
    endloop
  endfacet
  facet normal 0.406737 0.913545 0
    outer loop
      vertex 15.375 -30.5204 16.5
      vertex 14.2768 -30.0314 20.5
      vertex 15.375 -30.5204 20.5
    endloop
  endfacet
  facet normal 0.207912 0.978148 0
    outer loop
      vertex 13.101 -29.7815 16.5
      vertex 13.101 -29.7815 20.5
      vertex 14.2768 -30.0314 16.5
    endloop
  endfacet
  facet normal 0.207912 0.978148 0
    outer loop
      vertex 14.2768 -30.0314 16.5
      vertex 13.101 -29.7815 20.5
      vertex 14.2768 -30.0314 20.5
    endloop
  endfacet
  facet normal 0 1 0
    outer loop
      vertex 11.899 -29.7815 16.5
      vertex 11.899 -29.7815 20.5
      vertex 13.101 -29.7815 16.5
    endloop
  endfacet
  facet normal 0 1 0
    outer loop
      vertex 13.101 -29.7815 16.5
      vertex 11.899 -29.7815 20.5
      vertex 13.101 -29.7815 20.5
    endloop
  endfacet
  facet normal -0.207912 0.978148 0
    outer loop
      vertex 10.7232 -30.0314 16.5
      vertex 10.7232 -30.0314 20.5
      vertex 11.899 -29.7815 16.5
    endloop
  endfacet
  facet normal -0.207912 0.978148 0
    outer loop
      vertex 11.899 -29.7815 16.5
      vertex 10.7232 -30.0314 20.5
      vertex 11.899 -29.7815 20.5
    endloop
  endfacet
  facet normal -0.406737 0.913545 0
    outer loop
      vertex 9.625 -30.5204 16.5
      vertex 9.625 -30.5204 20.5
      vertex 10.7232 -30.0314 16.5
    endloop
  endfacet
  facet normal -0.406737 0.913545 0
    outer loop
      vertex 10.7232 -30.0314 16.5
      vertex 9.625 -30.5204 20.5
      vertex 10.7232 -30.0314 20.5
    endloop
  endfacet
  facet normal -0.587785 0.809017 0
    outer loop
      vertex 8.6525 -31.2269 16.5
      vertex 8.6525 -31.2269 20.5
      vertex 9.625 -30.5204 16.5
    endloop
  endfacet
  facet normal -0.587785 0.809017 0
    outer loop
      vertex 9.625 -30.5204 16.5
      vertex 8.6525 -31.2269 20.5
      vertex 9.625 -30.5204 20.5
    endloop
  endfacet
  facet normal -0.743145 0.669131 0
    outer loop
      vertex 7.84815 -32.1202 16.5
      vertex 7.84815 -32.1202 20.5
      vertex 8.6525 -31.2269 16.5
    endloop
  endfacet
  facet normal -0.743145 0.669131 0
    outer loop
      vertex 8.6525 -31.2269 16.5
      vertex 7.84815 -32.1202 20.5
      vertex 8.6525 -31.2269 20.5
    endloop
  endfacet
  facet normal -0.866026 0.5 0
    outer loop
      vertex 7.24711 -33.1613 16.5
      vertex 7.24711 -33.1613 20.5
      vertex 7.84815 -32.1202 16.5
    endloop
  endfacet
  facet normal -0.866026 0.5 0
    outer loop
      vertex 7.84815 -32.1202 16.5
      vertex 7.24711 -33.1613 20.5
      vertex 7.84815 -32.1202 20.5
    endloop
  endfacet
  facet normal 0 0 1
    outer loop
      vertex 6.87565 -34.3045 20.5
      vertex 6.75 -35.5 20.5
      vertex 6.87565 -36.6955 20.5
    endloop
  endfacet
  facet normal 0 0 1
    outer loop
      vertex 7.84815 -38.8798 20.5
      vertex 6.87565 -34.3045 20.5
      vertex 7.24711 -37.8387 20.5
    endloop
  endfacet
  facet normal 0 0 1
    outer loop
      vertex 7.24711 -37.8387 20.5
      vertex 6.87565 -34.3045 20.5
      vertex 6.87565 -36.6955 20.5
    endloop
  endfacet
  facet normal 0 0 1
    outer loop
      vertex 8.6525 -39.7731 20.5
      vertex 6.87565 -34.3045 20.5
      vertex 7.84815 -38.8798 20.5
    endloop
  endfacet
  facet normal 0 0 1
    outer loop
      vertex 9.625 -40.4796 20.5
      vertex 6.87565 -34.3045 20.5
      vertex 8.6525 -39.7731 20.5
    endloop
  endfacet
  facet normal 0 0 1
    outer loop
      vertex 10.7232 -40.9686 20.5
      vertex 6.87565 -34.3045 20.5
      vertex 9.625 -40.4796 20.5
    endloop
  endfacet
  facet normal 0 0 1
    outer loop
      vertex 11.899 -41.2185 20.5
      vertex 6.87565 -34.3045 20.5
      vertex 10.7232 -40.9686 20.5
    endloop
  endfacet
  facet normal 0 0 1
    outer loop
      vertex 13.101 -41.2185 20.5
      vertex 6.87565 -34.3045 20.5
      vertex 11.899 -41.2185 20.5
    endloop
  endfacet
  facet normal 0 0 1
    outer loop
      vertex 14.2768 -40.9686 20.5
      vertex 6.87565 -34.3045 20.5
      vertex 13.101 -41.2185 20.5
    endloop
  endfacet
  facet normal 0 0 1
    outer loop
      vertex 15.375 -40.4796 20.5
      vertex 6.87565 -34.3045 20.5
      vertex 14.2768 -40.9686 20.5
    endloop
  endfacet
  facet normal 0 0 1
    outer loop
      vertex 16.3475 -39.7731 20.5
      vertex 6.87565 -34.3045 20.5
      vertex 15.375 -40.4796 20.5
    endloop
  endfacet
  facet normal 0 0 1
    outer loop
      vertex 17.1518 -38.8798 20.5
      vertex 6.87565 -34.3045 20.5
      vertex 16.3475 -39.7731 20.5
    endloop
  endfacet
  facet normal 0 0 1
    outer loop
      vertex 17.7529 -37.8387 20.5
      vertex 6.87565 -34.3045 20.5
      vertex 17.1518 -38.8798 20.5
    endloop
  endfacet
  facet normal 0 0 1
    outer loop
      vertex 18.1243 -36.6955 20.5
      vertex 6.87565 -34.3045 20.5
      vertex 17.7529 -37.8387 20.5
    endloop
  endfacet
  facet normal 0 0 1
    outer loop
      vertex 18.25 -35.5 20.5
      vertex 6.87565 -34.3045 20.5
      vertex 18.1243 -36.6955 20.5
    endloop
  endfacet
  facet normal 0 0 1
    outer loop
      vertex 18.1243 -34.3045 20.5
      vertex 6.87565 -34.3045 20.5
      vertex 18.25 -35.5 20.5
    endloop
  endfacet
  facet normal 0 0 1
    outer loop
      vertex 17.7529 -33.1613 20.5
      vertex 6.87565 -34.3045 20.5
      vertex 18.1243 -34.3045 20.5
    endloop
  endfacet
  facet normal 0 0 1
    outer loop
      vertex 17.1518 -32.1202 20.5
      vertex 6.87565 -34.3045 20.5
      vertex 17.7529 -33.1613 20.5
    endloop
  endfacet
  facet normal 0 0 1
    outer loop
      vertex 16.3475 -31.2269 20.5
      vertex 6.87565 -34.3045 20.5
      vertex 17.1518 -32.1202 20.5
    endloop
  endfacet
  facet normal 0 0 1
    outer loop
      vertex 15.375 -30.5204 20.5
      vertex 6.87565 -34.3045 20.5
      vertex 16.3475 -31.2269 20.5
    endloop
  endfacet
  facet normal 0 0 1
    outer loop
      vertex 14.2768 -30.0314 20.5
      vertex 6.87565 -34.3045 20.5
      vertex 15.375 -30.5204 20.5
    endloop
  endfacet
  facet normal 0 0 1
    outer loop
      vertex 13.101 -29.7815 20.5
      vertex 6.87565 -34.3045 20.5
      vertex 14.2768 -30.0314 20.5
    endloop
  endfacet
  facet normal 0 0 1
    outer loop
      vertex 11.899 -29.7815 20.5
      vertex 6.87565 -34.3045 20.5
      vertex 13.101 -29.7815 20.5
    endloop
  endfacet
  facet normal 0 0 1
    outer loop
      vertex 10.7232 -30.0314 20.5
      vertex 6.87565 -34.3045 20.5
      vertex 11.899 -29.7815 20.5
    endloop
  endfacet
  facet normal 0 0 1
    outer loop
      vertex 9.625 -30.5204 20.5
      vertex 6.87565 -34.3045 20.5
      vertex 10.7232 -30.0314 20.5
    endloop
  endfacet
  facet normal 0 0 1
    outer loop
      vertex 8.6525 -31.2269 20.5
      vertex 6.87565 -34.3045 20.5
      vertex 9.625 -30.5204 20.5
    endloop
  endfacet
  facet normal 0 0 1
    outer loop
      vertex 7.84815 -32.1202 20.5
      vertex 6.87565 -34.3045 20.5
      vertex 8.6525 -31.2269 20.5
    endloop
  endfacet
  facet normal 0 0 1
    outer loop
      vertex 7.24711 -33.1613 20.5
      vertex 6.87565 -34.3045 20.5
      vertex 7.84815 -32.1202 20.5
    endloop
  endfacet
endsolid OpenSCAD_Model
