solid OpenSCAD_Model
  facet normal -1 0 0
    outer loop
      vertex 0 -67 10.5
      vertex 0 -67 13.5
      vertex 0 2.33147e-15 10.5
    endloop
  endfacet
  facet normal -1 0 0
    outer loop
      vertex 0 2.33147e-15 10.5
      vertex 0 -67 13.5
      vertex 0 3 13.5
    endloop
  endfacet
  facet normal -1 0 0
    outer loop
      vertex 0 2.33147e-15 10.5
      vertex 0 3 13.5
      vertex 0 3 3
    endloop
  endfacet
  facet normal -1 0 0
    outer loop
      vertex 0 0 3
      vertex 0 16 0
      vertex 0 3 0
    endloop
  endfacet
  facet normal -1 0 0
    outer loop
      vertex 0 3 3
      vertex 0 16 3
      vertex 0 16 0
    endloop
  endfacet
  facet normal -1 0 0
    outer loop
      vertex 0 3 3
      vertex 0 16 0
      vertex 0 6.66134e-16 3
    endloop
  endfacet
  facet normal -1 0 0
    outer loop
      vertex 0 16 0
      vertex 0 0 3
      vertex 0 6.66134e-16 3
    endloop
  endfacet
  facet normal -1 0 0
    outer loop
      vertex 0 0 3
      vertex 0 3 0
      vertex 0 3 -6.66134e-16
    endloop
  endfacet
  facet normal -1 0 0
    outer loop
      vertex 0 2.33147e-15 10.5
      vertex 0 3 3
      vertex 0 6.66134e-16 3
    endloop
  endfacet
  facet normal -1 0 0
    outer loop
      vertex 0 0 3
      vertex 0 3 -6.66134e-16
      vertex 0 0 0
    endloop
  endfacet
  facet normal 0 -1 0
    outer loop
      vertex 0 -67 13.5
      vertex 0 -67 10.5
      vertex 25 -67 10.5
    endloop
  endfacet
  facet normal 0 -1 0
    outer loop
      vertex 25 -67 13.5
      vertex 0 -67 13.5
      vertex 25 -67 10.5
    endloop
  endfacet
  facet normal 0 0 -1
    outer loop
      vertex 0 -67 10.5
      vertex 0 2.33147e-15 10.5
      vertex 25 -67 10.5
    endloop
  endfacet
  facet normal 0 0 -1
    outer loop
      vertex 25 -67 10.5
      vertex 0 2.33147e-15 10.5
      vertex 25 2.33147e-15 10.5
    endloop
  endfacet
  facet normal 0 -1 2.22045e-16
    outer loop
      vertex 0 2.33147e-15 10.5
      vertex 0 6.66134e-16 3
      vertex 25 6.66134e-16 3
    endloop
  endfacet
  facet normal 0 -1 2.22045e-16
    outer loop
      vertex 25 2.33147e-15 10.5
      vertex 0 2.33147e-15 10.5
      vertex 25 6.66134e-16 3
    endloop
  endfacet
  facet normal 0 0 1
    outer loop
      vertex 0 6.66134e-16 3
      vertex 0 0 3
      vertex 25 0 3
    endloop
  endfacet
  facet normal 0 0 1
    outer loop
      vertex 25 6.66134e-16 3
      vertex 0 6.66134e-16 3
      vertex 25 0 3
    endloop
  endfacet
  facet normal 0 -1 0
    outer loop
      vertex 0 0 3
      vertex 0 0 0
      vertex 25 0 0
    endloop
  endfacet
  facet normal 0 -1 0
    outer loop
      vertex 25 0 3
      vertex 0 0 3
      vertex 25 0 0
    endloop
  endfacet
  facet normal 0 -2.22045e-16 -1
    outer loop
      vertex 0 0 0
      vertex 0 3 -6.66134e-16
      vertex 25 0 0
    endloop
  endfacet
  facet normal 0 -2.22045e-16 -1
    outer loop
      vertex 25 0 0
      vertex 0 3 -6.66134e-16
      vertex 25 3 -6.66134e-16
    endloop
  endfacet
  facet normal 0 1 -2.22045e-16
    outer loop
      vertex 0 3 -6.66134e-16
      vertex 0 3 0
      vertex 25 3 -6.66134e-16
    endloop
  endfacet
  facet normal 0 1 -2.22045e-16
    outer loop
      vertex 25 3 -6.66134e-16
      vertex 0 3 0
      vertex 25 3 0
    endloop
  endfacet
  facet normal 0 0 -1
    outer loop
      vertex 0 3 0
      vertex 0 16 0
      vertex 25 3 0
    endloop
  endfacet
  facet normal 0 0 -1
    outer loop
      vertex 25 3 0
      vertex 0 16 0
      vertex 25 16 0
    endloop
  endfacet
  facet normal 0 1 0
    outer loop
      vertex 0 16 0
      vertex 0 16 3
      vertex 25 16 0
    endloop
  endfacet
  facet normal 0 1 0
    outer loop
      vertex 25 16 0
      vertex 0 16 3
      vertex 25 16 3
    endloop
  endfacet
  facet normal 0 0 1
    outer loop
      vertex 0 16 3
      vertex 0 3 3
      vertex 25 3 3
    endloop
  endfacet
  facet normal 0 0 1
    outer loop
      vertex 25 16 3
      vertex 0 16 3
      vertex 25 3 3
    endloop
  endfacet
  facet normal 0 1 -2.22045e-16
    outer loop
      vertex 0 3 3
      vertex 0 3 13.5
      vertex 25 3 3
    endloop
  endfacet
  facet normal 0 1 -2.22045e-16
    outer loop
      vertex 25 3 3
      vertex 0 3 13.5
      vertex 25 3 13.5
    endloop
  endfacet
  facet normal 0 0 1
    outer loop
      vertex 8.85942 -38.145 13.5
      vertex 0 -67 13.5
      vertex 25 -67 13.5
    endloop
  endfacet
  facet normal 0 0 1
    outer loop
      vertex 16.9017 -34.5644 13.5
      vertex 17 -35.5 13.5
      vertex 25 -67 13.5
    endloop
  endfacet
  facet normal 0 0 1
    outer loop
      vertex 0 3 13.5
      vertex 0 -67 13.5
      vertex 8.09834 -36.4356 13.5
    endloop
  endfacet
  facet normal 0 0 1
    outer loop
      vertex 9.48891 -38.8442 13.5
      vertex 8.85942 -38.145 13.5
      vertex 25 -67 13.5
    endloop
  endfacet
  facet normal 0 0 1
    outer loop
      vertex 0 3 13.5
      vertex 8.09834 -36.4356 13.5
      vertex 8 -35.5 13.5
    endloop
  endfacet
  facet normal 0 0 1
    outer loop
      vertex 10.25 -39.3971 13.5
      vertex 9.48891 -38.8442 13.5
      vertex 25 -67 13.5
    endloop
  endfacet
  facet normal 0 0 1
    outer loop
      vertex 0 3 13.5
      vertex 8 -35.5 13.5
      vertex 8.09834 -34.5644 13.5
    endloop
  endfacet
  facet normal 0 0 1
    outer loop
      vertex 11.1094 -39.7798 13.5
      vertex 10.25 -39.3971 13.5
      vertex 25 -67 13.5
    endloop
  endfacet
  facet normal 0 0 1
    outer loop
      vertex 0 3 13.5
      vertex 8.09834 -34.5644 13.5
      vertex 8.38904 -33.6697 13.5
    endloop
  endfacet
  facet normal 0 0 1
    outer loop
      vertex 12.0296 -39.9753 13.5
      vertex 11.1094 -39.7798 13.5
      vertex 25 -67 13.5
    endloop
  endfacet
  facet normal 0 0 1
    outer loop
      vertex 0 3 13.5
      vertex 8.38904 -33.6697 13.5
      vertex 8.85942 -32.855 13.5
    endloop
  endfacet
  facet normal 0 0 1
    outer loop
      vertex 0 3 13.5
      vertex 8.85942 -32.855 13.5
      vertex 9.48891 -32.1558 13.5
    endloop
  endfacet
  facet normal 0 0 1
    outer loop
      vertex 0 3 13.5
      vertex 9.48891 -32.1558 13.5
      vertex 10.25 -31.6029 13.5
    endloop
  endfacet
  facet normal 0 0 1
    outer loop
      vertex 13.8906 -39.7798 13.5
      vertex 12.9704 -39.9753 13.5
      vertex 25 -67 13.5
    endloop
  endfacet
  facet normal 0 0 1
    outer loop
      vertex 0 3 13.5
      vertex 10.25 -31.6029 13.5
      vertex 11.1094 -31.2202 13.5
    endloop
  endfacet
  facet normal 0 0 1
    outer loop
      vertex 16.1406 -38.145 13.5
      vertex 15.5111 -38.8442 13.5
      vertex 25 -67 13.5
    endloop
  endfacet
  facet normal 0 0 1
    outer loop
      vertex 0 3 13.5
      vertex 11.1094 -31.2202 13.5
      vertex 12.0296 -31.0247 13.5
    endloop
  endfacet
  facet normal 0 0 1
    outer loop
      vertex 15.5111 -38.8442 13.5
      vertex 14.75 -39.3971 13.5
      vertex 25 -67 13.5
    endloop
  endfacet
  facet normal 0 0 1
    outer loop
      vertex 25 3 13.5
      vertex 0 3 13.5
      vertex 12.9704 -31.0247 13.5
    endloop
  endfacet
  facet normal 0 0 1
    outer loop
      vertex 12.9704 -39.9753 13.5
      vertex 12.0296 -39.9753 13.5
      vertex 25 -67 13.5
    endloop
  endfacet
  facet normal 0 0 1
    outer loop
      vertex 25 3 13.5
      vertex 12.9704 -31.0247 13.5
      vertex 13.8906 -31.2202 13.5
    endloop
  endfacet
  facet normal 0 0 1
    outer loop
      vertex 25 3 13.5
      vertex 13.8906 -31.2202 13.5
      vertex 14.75 -31.6029 13.5
    endloop
  endfacet
  facet normal 0 0 1
    outer loop
      vertex 16.611 -37.3303 13.5
      vertex 16.1406 -38.145 13.5
      vertex 25 -67 13.5
    endloop
  endfacet
  facet normal 0 0 1
    outer loop
      vertex 25 3 13.5
      vertex 14.75 -31.6029 13.5
      vertex 15.5111 -32.1558 13.5
    endloop
  endfacet
  facet normal 0 0 1
    outer loop
      vertex 16.9017 -36.4356 13.5
      vertex 16.611 -37.3303 13.5
      vertex 25 -67 13.5
    endloop
  endfacet
  facet normal 0 0 1
    outer loop
      vertex 25 3 13.5
      vertex 15.5111 -32.1558 13.5
      vertex 16.1406 -32.855 13.5
    endloop
  endfacet
  facet normal 0 0 1
    outer loop
      vertex 17 -35.5 13.5
      vertex 16.9017 -36.4356 13.5
      vertex 25 -67 13.5
    endloop
  endfacet
  facet normal 0 0 1
    outer loop
      vertex 25 3 13.5
      vertex 16.1406 -32.855 13.5
      vertex 16.611 -33.6697 13.5
    endloop
  endfacet
  facet normal 0 0 1
    outer loop
      vertex 25 3 13.5
      vertex 16.9017 -34.5644 13.5
      vertex 25 -67 13.5
    endloop
  endfacet
  facet normal 0 0 1
    outer loop
      vertex 25 3 13.5
      vertex 16.611 -33.6697 13.5
      vertex 16.9017 -34.5644 13.5
    endloop
  endfacet
  facet normal 0 0 1
    outer loop
      vertex 8.38904 -37.3303 13.5
      vertex 0 -67 13.5
      vertex 8.85942 -38.145 13.5
    endloop
  endfacet
  facet normal 0 0 1
    outer loop
      vertex 8.09834 -36.4356 13.5
      vertex 0 -67 13.5
      vertex 8.38904 -37.3303 13.5
    endloop
  endfacet
  facet normal 0 0 1
    outer loop
      vertex 14.75 -39.3971 13.5
      vertex 13.8906 -39.7798 13.5
      vertex 25 -67 13.5
    endloop
  endfacet
  facet normal 0 0 1
    outer loop
      vertex 12.0296 -31.0247 13.5
      vertex 12.9704 -31.0247 13.5
      vertex 0 3 13.5
    endloop
  endfacet
  facet normal 1 0 0
    outer loop
      vertex 25 6.66134e-16 3
      vertex 25 3 -6.66134e-16
      vertex 25 2.33147e-15 10.5
    endloop
  endfacet
  facet normal 1 0 0
    outer loop
      vertex 25 -67 13.5
      vertex 25 -67 10.5
      vertex 25 2.33147e-15 10.5
    endloop
  endfacet
  facet normal 1 0 0
    outer loop
      vertex 25 0 3
      vertex 25 0 0
      vertex 25 6.66134e-16 3
    endloop
  endfacet
  facet normal 1 0 0
    outer loop
      vertex 25 3 13.5
      vertex 25 -67 13.5
      vertex 25 2.33147e-15 10.5
    endloop
  endfacet
  facet normal 1 0 0
    outer loop
      vertex 25 0 0
      vertex 25 3 -6.66134e-16
      vertex 25 6.66134e-16 3
    endloop
  endfacet
  facet normal 1 0 0
    outer loop
      vertex 25 3 -6.66134e-16
      vertex 25 3 0
      vertex 25 2.33147e-15 10.5
    endloop
  endfacet
  facet normal 1 0 0
    outer loop
      vertex 25 3 3
      vertex 25 3 13.5
      vertex 25 2.33147e-15 10.5
    endloop
  endfacet
  facet normal 1 0 0
    outer loop
      vertex 25 3 0
      vertex 25 3 3
      vertex 25 2.33147e-15 10.5
    endloop
  endfacet
  facet normal 1 0 0
    outer loop
      vertex 25 3 0
      vertex 25 16 0
      vertex 25 3 3
    endloop
  endfacet
  facet normal 1 0 0
    outer loop
      vertex 25 16 3
      vertex 25 3 3
      vertex 25 16 0
    endloop
  endfacet
  facet normal -0.994522 -0.104529 0
    outer loop
      vertex 8 -35.5 13.5
      vertex 8.09834 -36.4356 13.5
      vertex 8 -35.5 17.5
    endloop
  endfacet
  facet normal -0.994522 -0.104529 0
    outer loop
      vertex 8 -35.5 17.5
      vertex 8.09834 -36.4356 13.5
      vertex 8.09834 -36.4356 17.5
    endloop
  endfacet
  facet normal -0.951057 -0.309016 0
    outer loop
      vertex 8.09834 -36.4356 13.5
      vertex 8.38904 -37.3303 13.5
      vertex 8.09834 -36.4356 17.5
    endloop
  endfacet
  facet normal -0.951057 -0.309016 0
    outer loop
      vertex 8.09834 -36.4356 17.5
      vertex 8.38904 -37.3303 13.5
      vertex 8.38904 -37.3303 17.5
    endloop
  endfacet
  facet normal -0.866025 -0.500001 0
    outer loop
      vertex 8.38904 -37.3303 13.5
      vertex 8.85942 -38.145 13.5
      vertex 8.38904 -37.3303 17.5
    endloop
  endfacet
  facet normal -0.866025 -0.500001 0
    outer loop
      vertex 8.38904 -37.3303 17.5
      vertex 8.85942 -38.145 13.5
      vertex 8.85942 -38.145 17.5
    endloop
  endfacet
  facet normal -0.743145 -0.66913 0
    outer loop
      vertex 8.85942 -38.145 13.5
      vertex 9.48891 -38.8442 13.5
      vertex 8.85942 -38.145 17.5
    endloop
  endfacet
  facet normal -0.743145 -0.66913 0
    outer loop
      vertex 8.85942 -38.145 17.5
      vertex 9.48891 -38.8442 13.5
      vertex 9.48891 -38.8442 17.5
    endloop
  endfacet
  facet normal -0.587785 -0.809017 0
    outer loop
      vertex 9.48891 -38.8442 17.5
      vertex 9.48891 -38.8442 13.5
      vertex 10.25 -39.3971 13.5
    endloop
  endfacet
  facet normal -0.587785 -0.809017 0
    outer loop
      vertex 10.25 -39.3971 17.5
      vertex 9.48891 -38.8442 17.5
      vertex 10.25 -39.3971 13.5
    endloop
  endfacet
  facet normal -0.406736 -0.913546 0
    outer loop
      vertex 10.25 -39.3971 17.5
      vertex 10.25 -39.3971 13.5
      vertex 11.1094 -39.7798 13.5
    endloop
  endfacet
  facet normal -0.406736 -0.913546 0
    outer loop
      vertex 11.1094 -39.7798 17.5
      vertex 10.25 -39.3971 17.5
      vertex 11.1094 -39.7798 13.5
    endloop
  endfacet
  facet normal -0.207913 -0.978147 0
    outer loop
      vertex 11.1094 -39.7798 17.5
      vertex 11.1094 -39.7798 13.5
      vertex 12.0296 -39.9753 13.5
    endloop
  endfacet
  facet normal -0.207913 -0.978147 0
    outer loop
      vertex 12.0296 -39.9753 17.5
      vertex 11.1094 -39.7798 17.5
      vertex 12.0296 -39.9753 13.5
    endloop
  endfacet
  facet normal 0 -1 0
    outer loop
      vertex 12.0296 -39.9753 17.5
      vertex 12.0296 -39.9753 13.5
      vertex 12.9704 -39.9753 13.5
    endloop
  endfacet
  facet normal 0 -1 0
    outer loop
      vertex 12.9704 -39.9753 17.5
      vertex 12.0296 -39.9753 17.5
      vertex 12.9704 -39.9753 13.5
    endloop
  endfacet
  facet normal 0.207913 -0.978147 0
    outer loop
      vertex 12.9704 -39.9753 17.5
      vertex 12.9704 -39.9753 13.5
      vertex 13.8906 -39.7798 13.5
    endloop
  endfacet
  facet normal 0.207913 -0.978147 0
    outer loop
      vertex 13.8906 -39.7798 17.5
      vertex 12.9704 -39.9753 17.5
      vertex 13.8906 -39.7798 13.5
    endloop
  endfacet
  facet normal 0.406736 -0.913546 0
    outer loop
      vertex 13.8906 -39.7798 17.5
      vertex 13.8906 -39.7798 13.5
      vertex 14.75 -39.3971 13.5
    endloop
  endfacet
  facet normal 0.406736 -0.913546 0
    outer loop
      vertex 14.75 -39.3971 17.5
      vertex 13.8906 -39.7798 17.5
      vertex 14.75 -39.3971 13.5
    endloop
  endfacet
  facet normal 0.587785 -0.809017 0
    outer loop
      vertex 14.75 -39.3971 17.5
      vertex 14.75 -39.3971 13.5
      vertex 15.5111 -38.8442 13.5
    endloop
  endfacet
  facet normal 0.587785 -0.809017 0
    outer loop
      vertex 15.5111 -38.8442 17.5
      vertex 14.75 -39.3971 17.5
      vertex 15.5111 -38.8442 13.5
    endloop
  endfacet
  facet normal 0.743145 -0.66913 0
    outer loop
      vertex 15.5111 -38.8442 17.5
      vertex 15.5111 -38.8442 13.5
      vertex 16.1406 -38.145 13.5
    endloop
  endfacet
  facet normal 0.743145 -0.66913 0
    outer loop
      vertex 16.1406 -38.145 17.5
      vertex 15.5111 -38.8442 17.5
      vertex 16.1406 -38.145 13.5
    endloop
  endfacet
  facet normal 0.866025 -0.500001 0
    outer loop
      vertex 16.1406 -38.145 17.5
      vertex 16.1406 -38.145 13.5
      vertex 16.611 -37.3303 13.5
    endloop
  endfacet
  facet normal 0.866025 -0.500001 0
    outer loop
      vertex 16.611 -37.3303 17.5
      vertex 16.1406 -38.145 17.5
      vertex 16.611 -37.3303 13.5
    endloop
  endfacet
  facet normal 0.951057 -0.309016 0
    outer loop
      vertex 16.611 -37.3303 17.5
      vertex 16.611 -37.3303 13.5
      vertex 16.9017 -36.4356 13.5
    endloop
  endfacet
  facet normal 0.951057 -0.309016 0
    outer loop
      vertex 16.9017 -36.4356 17.5
      vertex 16.611 -37.3303 17.5
      vertex 16.9017 -36.4356 13.5
    endloop
  endfacet
  facet normal 0.994522 -0.104529 0
    outer loop
      vertex 16.9017 -36.4356 17.5
      vertex 16.9017 -36.4356 13.5
      vertex 17 -35.5 13.5
    endloop
  endfacet
  facet normal 0.994522 -0.104529 0
    outer loop
      vertex 17 -35.5 17.5
      vertex 16.9017 -36.4356 17.5
      vertex 17 -35.5 13.5
    endloop
  endfacet
  facet normal 0.994522 0.104529 0
    outer loop
      vertex 17 -35.5 13.5
      vertex 16.9017 -34.5644 13.5
      vertex 16.9017 -34.5644 17.5
    endloop
  endfacet
  facet normal 0.994522 0.104529 0
    outer loop
      vertex 17 -35.5 17.5
      vertex 17 -35.5 13.5
      vertex 16.9017 -34.5644 17.5
    endloop
  endfacet
  facet normal 0.951057 0.309016 0
    outer loop
      vertex 16.9017 -34.5644 13.5
      vertex 16.611 -33.6697 13.5
      vertex 16.611 -33.6697 17.5
    endloop
  endfacet
  facet normal 0.951057 0.309016 0
    outer loop
      vertex 16.9017 -34.5644 17.5
      vertex 16.9017 -34.5644 13.5
      vertex 16.611 -33.6697 17.5
    endloop
  endfacet
  facet normal 0.866025 0.500001 0
    outer loop
      vertex 16.611 -33.6697 13.5
      vertex 16.1406 -32.855 13.5
      vertex 16.1406 -32.855 17.5
    endloop
  endfacet
  facet normal 0.866025 0.500001 0
    outer loop
      vertex 16.611 -33.6697 17.5
      vertex 16.611 -33.6697 13.5
      vertex 16.1406 -32.855 17.5
    endloop
  endfacet
  facet normal 0.743145 0.66913 0
    outer loop
      vertex 16.1406 -32.855 13.5
      vertex 15.5111 -32.1558 13.5
      vertex 15.5111 -32.1558 17.5
    endloop
  endfacet
  facet normal 0.743145 0.66913 0
    outer loop
      vertex 16.1406 -32.855 17.5
      vertex 16.1406 -32.855 13.5
      vertex 15.5111 -32.1558 17.5
    endloop
  endfacet
  facet normal 0.587785 0.809017 0
    outer loop
      vertex 14.75 -31.6029 13.5
      vertex 14.75 -31.6029 17.5
      vertex 15.5111 -32.1558 13.5
    endloop
  endfacet
  facet normal 0.587785 0.809017 0
    outer loop
      vertex 15.5111 -32.1558 13.5
      vertex 14.75 -31.6029 17.5
      vertex 15.5111 -32.1558 17.5
    endloop
  endfacet
  facet normal 0.406736 0.913546 0
    outer loop
      vertex 13.8906 -31.2202 13.5
      vertex 13.8906 -31.2202 17.5
      vertex 14.75 -31.6029 13.5
    endloop
  endfacet
  facet normal 0.406736 0.913546 0
    outer loop
      vertex 14.75 -31.6029 13.5
      vertex 13.8906 -31.2202 17.5
      vertex 14.75 -31.6029 17.5
    endloop
  endfacet
  facet normal 0.207913 0.978147 0
    outer loop
      vertex 12.9704 -31.0247 13.5
      vertex 12.9704 -31.0247 17.5
      vertex 13.8906 -31.2202 13.5
    endloop
  endfacet
  facet normal 0.207913 0.978147 0
    outer loop
      vertex 13.8906 -31.2202 13.5
      vertex 12.9704 -31.0247 17.5
      vertex 13.8906 -31.2202 17.5
    endloop
  endfacet
  facet normal 0 1 0
    outer loop
      vertex 12.0296 -31.0247 13.5
      vertex 12.0296 -31.0247 17.5
      vertex 12.9704 -31.0247 13.5
    endloop
  endfacet
  facet normal 0 1 0
    outer loop
      vertex 12.9704 -31.0247 13.5
      vertex 12.0296 -31.0247 17.5
      vertex 12.9704 -31.0247 17.5
    endloop
  endfacet
  facet normal -0.207913 0.978147 0
    outer loop
      vertex 11.1094 -31.2202 13.5
      vertex 11.1094 -31.2202 17.5
      vertex 12.0296 -31.0247 13.5
    endloop
  endfacet
  facet normal -0.207913 0.978147 0
    outer loop
      vertex 12.0296 -31.0247 13.5
      vertex 11.1094 -31.2202 17.5
      vertex 12.0296 -31.0247 17.5
    endloop
  endfacet
  facet normal -0.406736 0.913546 0
    outer loop
      vertex 10.25 -31.6029 13.5
      vertex 10.25 -31.6029 17.5
      vertex 11.1094 -31.2202 13.5
    endloop
  endfacet
  facet normal -0.406736 0.913546 0
    outer loop
      vertex 11.1094 -31.2202 13.5
      vertex 10.25 -31.6029 17.5
      vertex 11.1094 -31.2202 17.5
    endloop
  endfacet
  facet normal -0.587785 0.809017 0
    outer loop
      vertex 9.48891 -32.1558 13.5
      vertex 9.48891 -32.1558 17.5
      vertex 10.25 -31.6029 13.5
    endloop
  endfacet
  facet normal -0.587785 0.809017 0
    outer loop
      vertex 10.25 -31.6029 13.5
      vertex 9.48891 -32.1558 17.5
      vertex 10.25 -31.6029 17.5
    endloop
  endfacet
  facet normal -0.743145 0.66913 0
    outer loop
      vertex 8.85942 -32.855 13.5
      vertex 8.85942 -32.855 17.5
      vertex 9.48891 -32.1558 13.5
    endloop
  endfacet
  facet normal -0.743145 0.66913 0
    outer loop
      vertex 9.48891 -32.1558 13.5
      vertex 8.85942 -32.855 17.5
      vertex 9.48891 -32.1558 17.5
    endloop
  endfacet
  facet normal -0.866025 0.500001 0
    outer loop
      vertex 8.38904 -33.6697 13.5
      vertex 8.38904 -33.6697 17.5
      vertex 8.85942 -32.855 13.5
    endloop
  endfacet
  facet normal -0.866025 0.500001 0
    outer loop
      vertex 8.85942 -32.855 13.5
      vertex 8.38904 -33.6697 17.5
      vertex 8.85942 -32.855 17.5
    endloop
  endfacet
  facet normal -0.951057 0.309016 0
    outer loop
      vertex 8.09834 -34.5644 13.5
      vertex 8.09834 -34.5644 17.5
      vertex 8.38904 -33.6697 13.5
    endloop
  endfacet
  facet normal -0.951057 0.309016 0
    outer loop
      vertex 8.38904 -33.6697 13.5
      vertex 8.09834 -34.5644 17.5
      vertex 8.38904 -33.6697 17.5
    endloop
  endfacet
  facet normal -0.994522 0.104529 0
    outer loop
      vertex 8 -35.5 13.5
      vertex 8 -35.5 17.5
      vertex 8.09834 -34.5644 13.5
    endloop
  endfacet
  facet normal -0.994522 0.104529 0
    outer loop
      vertex 8.09834 -34.5644 13.5
      vertex 8 -35.5 17.5
      vertex 8.09834 -34.5644 17.5
    endloop
  endfacet
  facet normal 0 0 -1
    outer loop
      vertex 7.01873 -33.0596 17.5
      vertex 7.6459 -31.9733 17.5
      vertex 6.63111 -34.2525 17.5
    endloop
  endfacet
  facet normal 0 0 -1
    outer loop
      vertex 6.63111 -34.2525 17.5
      vertex 7.6459 -31.9733 17.5
      vertex 8.48522 -31.0411 17.5
    endloop
  endfacet
  facet normal 0 0 -1
    outer loop
      vertex 6.63111 -34.2525 17.5
      vertex 8.48522 -31.0411 17.5
      vertex 9.5 -30.3038 17.5
    endloop
  endfacet
  facet normal 0 0 -1
    outer loop
      vertex 6.63111 -34.2525 17.5
      vertex 9.5 -30.3038 17.5
      vertex 10.6459 -29.7937 17.5
    endloop
  endfacet
  facet normal 0 0 -1
    outer loop
      vertex 6.63111 -34.2525 17.5
      vertex 10.6459 -29.7937 17.5
      vertex 11.8728 -29.5329 17.5
    endloop
  endfacet
  facet normal 0 0 -1
    outer loop
      vertex 10.25 -31.6029 17.5
      vertex 11.8728 -29.5329 17.5
      vertex 13.1272 -29.5329 17.5
    endloop
  endfacet
  facet normal 0 0 -1
    outer loop
      vertex 12.0296 -31.0247 17.5
      vertex 13.1272 -29.5329 17.5
      vertex 14.3541 -29.7937 17.5
    endloop
  endfacet
  facet normal 0 0 -1
    outer loop
      vertex 12.9704 -31.0247 17.5
      vertex 14.3541 -29.7937 17.5
      vertex 15.5 -30.3038 17.5
    endloop
  endfacet
  facet normal 0 0 -1
    outer loop
      vertex 14.75 -31.6029 17.5
      vertex 15.5 -30.3038 17.5
      vertex 16.5148 -31.0411 17.5
    endloop
  endfacet
  facet normal 0 0 -1
    outer loop
      vertex 15.5111 -32.1558 17.5
      vertex 16.5148 -31.0411 17.5
      vertex 17.3541 -31.9733 17.5
    endloop
  endfacet
  facet normal 0 0 -1
    outer loop
      vertex 16.1406 -32.855 17.5
      vertex 17.3541 -31.9733 17.5
      vertex 17.9813 -33.0596 17.5
    endloop
  endfacet
  facet normal 0 0 -1
    outer loop
      vertex 16.611 -33.6697 17.5
      vertex 17.9813 -33.0596 17.5
      vertex 18.3689 -34.2525 17.5
    endloop
  endfacet
  facet normal 0 0 -1
    outer loop
      vertex 16.9017 -34.5644 17.5
      vertex 18.3689 -34.2525 17.5
      vertex 18.5 -35.5 17.5
    endloop
  endfacet
  facet normal 0 0 -1
    outer loop
      vertex 17 -35.5 17.5
      vertex 18.5 -35.5 17.5
      vertex 18.3689 -36.7475 17.5
    endloop
  endfacet
  facet normal 0 0 -1
    outer loop
      vertex 16.611 -37.3303 17.5
      vertex 18.3689 -36.7475 17.5
      vertex 17.9813 -37.9404 17.5
    endloop
  endfacet
  facet normal 0 0 -1
    outer loop
      vertex 16.1406 -38.145 17.5
      vertex 17.9813 -37.9404 17.5
      vertex 17.3541 -39.0267 17.5
    endloop
  endfacet
  facet normal 0 0 -1
    outer loop
      vertex 15.5111 -38.8442 17.5
      vertex 17.3541 -39.0267 17.5
      vertex 16.5148 -39.9589 17.5
    endloop
  endfacet
  facet normal 0 0 -1
    outer loop
      vertex 14.75 -39.3971 17.5
      vertex 16.5148 -39.9589 17.5
      vertex 15.5 -40.6962 17.5
    endloop
  endfacet
  facet normal 0 0 -1
    outer loop
      vertex 13.8906 -39.7798 17.5
      vertex 15.5 -40.6962 17.5
      vertex 14.3541 -41.2063 17.5
    endloop
  endfacet
  facet normal 0 0 -1
    outer loop
      vertex 12.0296 -39.9753 17.5
      vertex 14.3541 -41.2063 17.5
      vertex 13.1272 -41.4671 17.5
    endloop
  endfacet
  facet normal 0 0 -1
    outer loop
      vertex 11.1094 -39.7798 17.5
      vertex 13.1272 -41.4671 17.5
      vertex 11.8728 -41.4671 17.5
    endloop
  endfacet
  facet normal 0 0 -1
    outer loop
      vertex 9.48891 -38.8442 17.5
      vertex 11.8728 -41.4671 17.5
      vertex 10.6459 -41.2063 17.5
    endloop
  endfacet
  facet normal 0 0 -1
    outer loop
      vertex 8.85942 -38.145 17.5
      vertex 10.6459 -41.2063 17.5
      vertex 9.5 -40.6962 17.5
    endloop
  endfacet
  facet normal 0 0 -1
    outer loop
      vertex 6.63111 -34.2525 17.5
      vertex 9.5 -40.6962 17.5
      vertex 8.48522 -39.9589 17.5
    endloop
  endfacet
  facet normal 0 0 -1
    outer loop
      vertex 6.63111 -34.2525 17.5
      vertex 8.48522 -39.9589 17.5
      vertex 7.6459 -39.0267 17.5
    endloop
  endfacet
  facet normal 0 0 -1
    outer loop
      vertex 6.63111 -34.2525 17.5
      vertex 7.6459 -39.0267 17.5
      vertex 7.01873 -37.9404 17.5
    endloop
  endfacet
  facet normal 0 0 -1
    outer loop
      vertex 6.63111 -34.2525 17.5
      vertex 7.01873 -37.9404 17.5
      vertex 6.63111 -36.7475 17.5
    endloop
  endfacet
  facet normal 0 0 -1
    outer loop
      vertex 6.63111 -34.2525 17.5
      vertex 6.63111 -36.7475 17.5
      vertex 6.5 -35.5 17.5
    endloop
  endfacet
  facet normal 0 0 -1
    outer loop
      vertex 8.38904 -37.3303 17.5
      vertex 6.63111 -34.2525 17.5
      vertex 8.09834 -36.4356 17.5
    endloop
  endfacet
  facet normal 0 0 -1
    outer loop
      vertex 9.48891 -38.8442 17.5
      vertex 10.6459 -41.2063 17.5
      vertex 8.85942 -38.145 17.5
    endloop
  endfacet
  facet normal 0 0 -1
    outer loop
      vertex 6.63111 -34.2525 17.5
      vertex 8.38904 -37.3303 17.5
      vertex 9.5 -40.6962 17.5
    endloop
  endfacet
  facet normal 0 0 -1
    outer loop
      vertex 8.38904 -37.3303 17.5
      vertex 8.85942 -38.145 17.5
      vertex 9.5 -40.6962 17.5
    endloop
  endfacet
  facet normal 0 0 -1
    outer loop
      vertex 10.25 -39.3971 17.5
      vertex 11.8728 -41.4671 17.5
      vertex 9.48891 -38.8442 17.5
    endloop
  endfacet
  facet normal 0 0 -1
    outer loop
      vertex 11.1094 -39.7798 17.5
      vertex 11.8728 -41.4671 17.5
      vertex 10.25 -39.3971 17.5
    endloop
  endfacet
  facet normal 0 0 -1
    outer loop
      vertex 12.9704 -39.9753 17.5
      vertex 14.3541 -41.2063 17.5
      vertex 12.0296 -39.9753 17.5
    endloop
  endfacet
  facet normal 0 0 -1
    outer loop
      vertex 14.75 -39.3971 17.5
      vertex 15.5 -40.6962 17.5
      vertex 13.8906 -39.7798 17.5
    endloop
  endfacet
  facet normal 0 0 -1
    outer loop
      vertex 15.5111 -38.8442 17.5
      vertex 16.5148 -39.9589 17.5
      vertex 14.75 -39.3971 17.5
    endloop
  endfacet
  facet normal 0 0 -1
    outer loop
      vertex 16.1406 -38.145 17.5
      vertex 17.3541 -39.0267 17.5
      vertex 15.5111 -38.8442 17.5
    endloop
  endfacet
  facet normal 0 0 -1
    outer loop
      vertex 16.611 -37.3303 17.5
      vertex 17.9813 -37.9404 17.5
      vertex 16.1406 -38.145 17.5
    endloop
  endfacet
  facet normal 0 0 -1
    outer loop
      vertex 16.9017 -36.4356 17.5
      vertex 18.3689 -36.7475 17.5
      vertex 16.611 -37.3303 17.5
    endloop
  endfacet
  facet normal 0 0 -1
    outer loop
      vertex 17 -35.5 17.5
      vertex 18.3689 -36.7475 17.5
      vertex 16.9017 -36.4356 17.5
    endloop
  endfacet
  facet normal 0 0 -1
    outer loop
      vertex 16.9017 -34.5644 17.5
      vertex 18.5 -35.5 17.5
      vertex 17 -35.5 17.5
    endloop
  endfacet
  facet normal 0 0 -1
    outer loop
      vertex 16.611 -33.6697 17.5
      vertex 18.3689 -34.2525 17.5
      vertex 16.9017 -34.5644 17.5
    endloop
  endfacet
  facet normal 0 0 -1
    outer loop
      vertex 16.1406 -32.855 17.5
      vertex 17.9813 -33.0596 17.5
      vertex 16.611 -33.6697 17.5
    endloop
  endfacet
  facet normal 0 0 -1
    outer loop
      vertex 15.5111 -32.1558 17.5
      vertex 17.3541 -31.9733 17.5
      vertex 16.1406 -32.855 17.5
    endloop
  endfacet
  facet normal 0 0 -1
    outer loop
      vertex 14.75 -31.6029 17.5
      vertex 16.5148 -31.0411 17.5
      vertex 15.5111 -32.1558 17.5
    endloop
  endfacet
  facet normal 0 0 -1
    outer loop
      vertex 13.8906 -31.2202 17.5
      vertex 15.5 -30.3038 17.5
      vertex 14.75 -31.6029 17.5
    endloop
  endfacet
  facet normal 0 0 -1
    outer loop
      vertex 12.9704 -31.0247 17.5
      vertex 15.5 -30.3038 17.5
      vertex 13.8906 -31.2202 17.5
    endloop
  endfacet
  facet normal 0 0 -1
    outer loop
      vertex 12.0296 -31.0247 17.5
      vertex 14.3541 -29.7937 17.5
      vertex 12.9704 -31.0247 17.5
    endloop
  endfacet
  facet normal 0 0 -1
    outer loop
      vertex 11.1094 -31.2202 17.5
      vertex 13.1272 -29.5329 17.5
      vertex 12.0296 -31.0247 17.5
    endloop
  endfacet
  facet normal 0 0 -1
    outer loop
      vertex 10.25 -31.6029 17.5
      vertex 13.1272 -29.5329 17.5
      vertex 11.1094 -31.2202 17.5
    endloop
  endfacet
  facet normal 0 0 -1
    outer loop
      vertex 9.48891 -32.1558 17.5
      vertex 11.8728 -29.5329 17.5
      vertex 10.25 -31.6029 17.5
    endloop
  endfacet
  facet normal 0 0 -1
    outer loop
      vertex 8.85942 -32.855 17.5
      vertex 6.63111 -34.2525 17.5
      vertex 9.48891 -32.1558 17.5
    endloop
  endfacet
  facet normal 0 0 -1
    outer loop
      vertex 6.63111 -34.2525 17.5
      vertex 11.8728 -29.5329 17.5
      vertex 9.48891 -32.1558 17.5
    endloop
  endfacet
  facet normal 0 0 -1
    outer loop
      vertex 8.38904 -33.6697 17.5
      vertex 6.63111 -34.2525 17.5
      vertex 8.85942 -32.855 17.5
    endloop
  endfacet
  facet normal 0 0 -1
    outer loop
      vertex 8.09834 -34.5644 17.5
      vertex 6.63111 -34.2525 17.5
      vertex 8.38904 -33.6697 17.5
    endloop
  endfacet
  facet normal 0 0 -1
    outer loop
      vertex 8 -35.5 17.5
      vertex 6.63111 -34.2525 17.5
      vertex 8.09834 -34.5644 17.5
    endloop
  endfacet
  facet normal 0 0 -1
    outer loop
      vertex 8.09834 -36.4356 17.5
      vertex 6.63111 -34.2525 17.5
      vertex 8 -35.5 17.5
    endloop
  endfacet
  facet normal 0 0 -1
    outer loop
      vertex 13.8906 -39.7798 17.5
      vertex 14.3541 -41.2063 17.5
      vertex 12.9704 -39.9753 17.5
    endloop
  endfacet
  facet normal 0 0 -1
    outer loop
      vertex 12.0296 -39.9753 17.5
      vertex 13.1272 -41.4671 17.5
      vertex 11.1094 -39.7798 17.5
    endloop
  endfacet
  facet normal -0.951057 0.309017 0
    outer loop
      vertex 6.63111 -34.2525 17.5
      vertex 6.63111 -34.2525 21.5
      vertex 7.01873 -33.0596 17.5
    endloop
  endfacet
  facet normal -0.951057 0.309017 0
    outer loop
      vertex 7.01873 -33.0596 17.5
      vertex 6.63111 -34.2525 21.5
      vertex 7.01873 -33.0596 21.5
    endloop
  endfacet
  facet normal -0.994522 0.104528 0
    outer loop
      vertex 6.5 -35.5 17.5
      vertex 6.5 -35.5 21.5
      vertex 6.63111 -34.2525 17.5
    endloop
  endfacet
  facet normal -0.994522 0.104528 0
    outer loop
      vertex 6.63111 -34.2525 17.5
      vertex 6.5 -35.5 21.5
      vertex 6.63111 -34.2525 21.5
    endloop
  endfacet
  facet normal -0.994522 -0.104528 0
    outer loop
      vertex 6.5 -35.5 17.5
      vertex 6.63111 -36.7475 17.5
      vertex 6.5 -35.5 21.5
    endloop
  endfacet
  facet normal -0.994522 -0.104528 0
    outer loop
      vertex 6.5 -35.5 21.5
      vertex 6.63111 -36.7475 17.5
      vertex 6.63111 -36.7475 21.5
    endloop
  endfacet
  facet normal -0.951057 -0.309017 0
    outer loop
      vertex 6.63111 -36.7475 17.5
      vertex 7.01873 -37.9404 17.5
      vertex 6.63111 -36.7475 21.5
    endloop
  endfacet
  facet normal -0.951057 -0.309017 0
    outer loop
      vertex 6.63111 -36.7475 21.5
      vertex 7.01873 -37.9404 17.5
      vertex 7.01873 -37.9404 21.5
    endloop
  endfacet
  facet normal -0.866025 -0.5 0
    outer loop
      vertex 7.01873 -37.9404 17.5
      vertex 7.6459 -39.0267 17.5
      vertex 7.01873 -37.9404 21.5
    endloop
  endfacet
  facet normal -0.866025 -0.5 0
    outer loop
      vertex 7.01873 -37.9404 21.5
      vertex 7.6459 -39.0267 17.5
      vertex 7.6459 -39.0267 21.5
    endloop
  endfacet
  facet normal -0.743145 -0.669131 0
    outer loop
      vertex 7.6459 -39.0267 17.5
      vertex 8.48522 -39.9589 17.5
      vertex 7.6459 -39.0267 21.5
    endloop
  endfacet
  facet normal -0.743145 -0.669131 0
    outer loop
      vertex 7.6459 -39.0267 21.5
      vertex 8.48522 -39.9589 17.5
      vertex 8.48522 -39.9589 21.5
    endloop
  endfacet
  facet normal -0.587785 -0.809017 0
    outer loop
      vertex 8.48522 -39.9589 21.5
      vertex 8.48522 -39.9589 17.5
      vertex 9.5 -40.6962 17.5
    endloop
  endfacet
  facet normal -0.587785 -0.809017 0
    outer loop
      vertex 9.5 -40.6962 21.5
      vertex 8.48522 -39.9589 21.5
      vertex 9.5 -40.6962 17.5
    endloop
  endfacet
  facet normal -0.406737 -0.913545 0
    outer loop
      vertex 9.5 -40.6962 21.5
      vertex 9.5 -40.6962 17.5
      vertex 10.6459 -41.2063 17.5
    endloop
  endfacet
  facet normal -0.406737 -0.913545 0
    outer loop
      vertex 10.6459 -41.2063 21.5
      vertex 9.5 -40.6962 21.5
      vertex 10.6459 -41.2063 17.5
    endloop
  endfacet
  facet normal -0.207912 -0.978148 0
    outer loop
      vertex 10.6459 -41.2063 21.5
      vertex 10.6459 -41.2063 17.5
      vertex 11.8728 -41.4671 17.5
    endloop
  endfacet
  facet normal -0.207912 -0.978148 0
    outer loop
      vertex 11.8728 -41.4671 21.5
      vertex 10.6459 -41.2063 21.5
      vertex 11.8728 -41.4671 17.5
    endloop
  endfacet
  facet normal 0 -1 0
    outer loop
      vertex 11.8728 -41.4671 21.5
      vertex 11.8728 -41.4671 17.5
      vertex 13.1272 -41.4671 17.5
    endloop
  endfacet
  facet normal 0 -1 0
    outer loop
      vertex 13.1272 -41.4671 21.5
      vertex 11.8728 -41.4671 21.5
      vertex 13.1272 -41.4671 17.5
    endloop
  endfacet
  facet normal 0.207912 -0.978148 0
    outer loop
      vertex 13.1272 -41.4671 21.5
      vertex 13.1272 -41.4671 17.5
      vertex 14.3541 -41.2063 17.5
    endloop
  endfacet
  facet normal 0.207912 -0.978148 0
    outer loop
      vertex 14.3541 -41.2063 21.5
      vertex 13.1272 -41.4671 21.5
      vertex 14.3541 -41.2063 17.5
    endloop
  endfacet
  facet normal 0.406737 -0.913545 0
    outer loop
      vertex 14.3541 -41.2063 21.5
      vertex 14.3541 -41.2063 17.5
      vertex 15.5 -40.6962 17.5
    endloop
  endfacet
  facet normal 0.406737 -0.913545 0
    outer loop
      vertex 15.5 -40.6962 21.5
      vertex 14.3541 -41.2063 21.5
      vertex 15.5 -40.6962 17.5
    endloop
  endfacet
  facet normal 0.587785 -0.809017 0
    outer loop
      vertex 15.5 -40.6962 21.5
      vertex 15.5 -40.6962 17.5
      vertex 16.5148 -39.9589 17.5
    endloop
  endfacet
  facet normal 0.587785 -0.809017 0
    outer loop
      vertex 16.5148 -39.9589 21.5
      vertex 15.5 -40.6962 21.5
      vertex 16.5148 -39.9589 17.5
    endloop
  endfacet
  facet normal 0.743145 -0.669131 0
    outer loop
      vertex 16.5148 -39.9589 21.5
      vertex 16.5148 -39.9589 17.5
      vertex 17.3541 -39.0267 17.5
    endloop
  endfacet
  facet normal 0.743145 -0.669131 0
    outer loop
      vertex 17.3541 -39.0267 21.5
      vertex 16.5148 -39.9589 21.5
      vertex 17.3541 -39.0267 17.5
    endloop
  endfacet
  facet normal 0.866025 -0.5 0
    outer loop
      vertex 17.3541 -39.0267 21.5
      vertex 17.3541 -39.0267 17.5
      vertex 17.9813 -37.9404 17.5
    endloop
  endfacet
  facet normal 0.866025 -0.5 0
    outer loop
      vertex 17.9813 -37.9404 21.5
      vertex 17.3541 -39.0267 21.5
      vertex 17.9813 -37.9404 17.5
    endloop
  endfacet
  facet normal 0.951057 -0.309017 0
    outer loop
      vertex 17.9813 -37.9404 21.5
      vertex 17.9813 -37.9404 17.5
      vertex 18.3689 -36.7475 17.5
    endloop
  endfacet
  facet normal 0.951057 -0.309017 0
    outer loop
      vertex 18.3689 -36.7475 21.5
      vertex 17.9813 -37.9404 21.5
      vertex 18.3689 -36.7475 17.5
    endloop
  endfacet
  facet normal 0.994522 -0.104528 0
    outer loop
      vertex 18.3689 -36.7475 21.5
      vertex 18.3689 -36.7475 17.5
      vertex 18.5 -35.5 17.5
    endloop
  endfacet
  facet normal 0.994522 -0.104528 0
    outer loop
      vertex 18.5 -35.5 21.5
      vertex 18.3689 -36.7475 21.5
      vertex 18.5 -35.5 17.5
    endloop
  endfacet
  facet normal 0.994522 0.104528 0
    outer loop
      vertex 18.5 -35.5 17.5
      vertex 18.3689 -34.2525 17.5
      vertex 18.3689 -34.2525 21.5
    endloop
  endfacet
  facet normal 0.994522 0.104528 0
    outer loop
      vertex 18.5 -35.5 21.5
      vertex 18.5 -35.5 17.5
      vertex 18.3689 -34.2525 21.5
    endloop
  endfacet
  facet normal 0.951057 0.309017 0
    outer loop
      vertex 18.3689 -34.2525 17.5
      vertex 17.9813 -33.0596 17.5
      vertex 17.9813 -33.0596 21.5
    endloop
  endfacet
  facet normal 0.951057 0.309017 0
    outer loop
      vertex 18.3689 -34.2525 21.5
      vertex 18.3689 -34.2525 17.5
      vertex 17.9813 -33.0596 21.5
    endloop
  endfacet
  facet normal 0.866025 0.5 0
    outer loop
      vertex 17.9813 -33.0596 17.5
      vertex 17.3541 -31.9733 17.5
      vertex 17.3541 -31.9733 21.5
    endloop
  endfacet
  facet normal 0.866025 0.5 0
    outer loop
      vertex 17.9813 -33.0596 21.5
      vertex 17.9813 -33.0596 17.5
      vertex 17.3541 -31.9733 21.5
    endloop
  endfacet
  facet normal 0.743145 0.669131 0
    outer loop
      vertex 17.3541 -31.9733 17.5
      vertex 16.5148 -31.0411 17.5
      vertex 16.5148 -31.0411 21.5
    endloop
  endfacet
  facet normal 0.743145 0.669131 0
    outer loop
      vertex 17.3541 -31.9733 21.5
      vertex 17.3541 -31.9733 17.5
      vertex 16.5148 -31.0411 21.5
    endloop
  endfacet
  facet normal 0.587785 0.809017 0
    outer loop
      vertex 15.5 -30.3038 17.5
      vertex 15.5 -30.3038 21.5
      vertex 16.5148 -31.0411 17.5
    endloop
  endfacet
  facet normal 0.587785 0.809017 0
    outer loop
      vertex 16.5148 -31.0411 17.5
      vertex 15.5 -30.3038 21.5
      vertex 16.5148 -31.0411 21.5
    endloop
  endfacet
  facet normal 0.406737 0.913545 0
    outer loop
      vertex 14.3541 -29.7937 17.5
      vertex 14.3541 -29.7937 21.5
      vertex 15.5 -30.3038 17.5
    endloop
  endfacet
  facet normal 0.406737 0.913545 0
    outer loop
      vertex 15.5 -30.3038 17.5
      vertex 14.3541 -29.7937 21.5
      vertex 15.5 -30.3038 21.5
    endloop
  endfacet
  facet normal 0.207912 0.978148 0
    outer loop
      vertex 13.1272 -29.5329 17.5
      vertex 13.1272 -29.5329 21.5
      vertex 14.3541 -29.7937 17.5
    endloop
  endfacet
  facet normal 0.207912 0.978148 0
    outer loop
      vertex 14.3541 -29.7937 17.5
      vertex 13.1272 -29.5329 21.5
      vertex 14.3541 -29.7937 21.5
    endloop
  endfacet
  facet normal 0 1 0
    outer loop
      vertex 11.8728 -29.5329 17.5
      vertex 11.8728 -29.5329 21.5
      vertex 13.1272 -29.5329 17.5
    endloop
  endfacet
  facet normal 0 1 0
    outer loop
      vertex 13.1272 -29.5329 17.5
      vertex 11.8728 -29.5329 21.5
      vertex 13.1272 -29.5329 21.5
    endloop
  endfacet
  facet normal -0.207912 0.978148 0
    outer loop
      vertex 10.6459 -29.7937 17.5
      vertex 10.6459 -29.7937 21.5
      vertex 11.8728 -29.5329 17.5
    endloop
  endfacet
  facet normal -0.207912 0.978148 0
    outer loop
      vertex 11.8728 -29.5329 17.5
      vertex 10.6459 -29.7937 21.5
      vertex 11.8728 -29.5329 21.5
    endloop
  endfacet
  facet normal -0.406737 0.913545 0
    outer loop
      vertex 9.5 -30.3038 17.5
      vertex 9.5 -30.3038 21.5
      vertex 10.6459 -29.7937 17.5
    endloop
  endfacet
  facet normal -0.406737 0.913545 0
    outer loop
      vertex 10.6459 -29.7937 17.5
      vertex 9.5 -30.3038 21.5
      vertex 10.6459 -29.7937 21.5
    endloop
  endfacet
  facet normal -0.587785 0.809017 0
    outer loop
      vertex 8.48522 -31.0411 17.5
      vertex 8.48522 -31.0411 21.5
      vertex 9.5 -30.3038 17.5
    endloop
  endfacet
  facet normal -0.587785 0.809017 0
    outer loop
      vertex 9.5 -30.3038 17.5
      vertex 8.48522 -31.0411 21.5
      vertex 9.5 -30.3038 21.5
    endloop
  endfacet
  facet normal -0.743145 0.669131 0
    outer loop
      vertex 7.6459 -31.9733 17.5
      vertex 7.6459 -31.9733 21.5
      vertex 8.48522 -31.0411 17.5
    endloop
  endfacet
  facet normal -0.743145 0.669131 0
    outer loop
      vertex 8.48522 -31.0411 17.5
      vertex 7.6459 -31.9733 21.5
      vertex 8.48522 -31.0411 21.5
    endloop
  endfacet
  facet normal -0.866025 0.5 0
    outer loop
      vertex 7.01873 -33.0596 17.5
      vertex 7.01873 -33.0596 21.5
      vertex 7.6459 -31.9733 17.5
    endloop
  endfacet
  facet normal -0.866025 0.5 0
    outer loop
      vertex 7.6459 -31.9733 17.5
      vertex 7.01873 -33.0596 21.5
      vertex 7.6459 -31.9733 21.5
    endloop
  endfacet
  facet normal 0 0 1
    outer loop
      vertex 6.63111 -34.2525 21.5
      vertex 6.5 -35.5 21.5
      vertex 6.63111 -36.7475 21.5
    endloop
  endfacet
  facet normal 0 0 1
    outer loop
      vertex 7.6459 -39.0267 21.5
      vertex 6.63111 -34.2525 21.5
      vertex 7.01873 -37.9404 21.5
    endloop
  endfacet
  facet normal 0 0 1
    outer loop
      vertex 7.01873 -37.9404 21.5
      vertex 6.63111 -34.2525 21.5
      vertex 6.63111 -36.7475 21.5
    endloop
  endfacet
  facet normal 0 0 1
    outer loop
      vertex 8.48522 -39.9589 21.5
      vertex 6.63111 -34.2525 21.5
      vertex 7.6459 -39.0267 21.5
    endloop
  endfacet
  facet normal 0 0 1
    outer loop
      vertex 9.5 -40.6962 21.5
      vertex 6.63111 -34.2525 21.5
      vertex 8.48522 -39.9589 21.5
    endloop
  endfacet
  facet normal 0 0 1
    outer loop
      vertex 10.6459 -41.2063 21.5
      vertex 6.63111 -34.2525 21.5
      vertex 9.5 -40.6962 21.5
    endloop
  endfacet
  facet normal 0 0 1
    outer loop
      vertex 11.8728 -41.4671 21.5
      vertex 6.63111 -34.2525 21.5
      vertex 10.6459 -41.2063 21.5
    endloop
  endfacet
  facet normal 0 0 1
    outer loop
      vertex 13.1272 -41.4671 21.5
      vertex 6.63111 -34.2525 21.5
      vertex 11.8728 -41.4671 21.5
    endloop
  endfacet
  facet normal 0 0 1
    outer loop
      vertex 14.3541 -41.2063 21.5
      vertex 6.63111 -34.2525 21.5
      vertex 13.1272 -41.4671 21.5
    endloop
  endfacet
  facet normal 0 0 1
    outer loop
      vertex 15.5 -40.6962 21.5
      vertex 6.63111 -34.2525 21.5
      vertex 14.3541 -41.2063 21.5
    endloop
  endfacet
  facet normal 0 0 1
    outer loop
      vertex 16.5148 -39.9589 21.5
      vertex 6.63111 -34.2525 21.5
      vertex 15.5 -40.6962 21.5
    endloop
  endfacet
  facet normal 0 0 1
    outer loop
      vertex 17.3541 -39.0267 21.5
      vertex 6.63111 -34.2525 21.5
      vertex 16.5148 -39.9589 21.5
    endloop
  endfacet
  facet normal 0 0 1
    outer loop
      vertex 17.9813 -37.9404 21.5
      vertex 6.63111 -34.2525 21.5
      vertex 17.3541 -39.0267 21.5
    endloop
  endfacet
  facet normal 0 0 1
    outer loop
      vertex 18.3689 -36.7475 21.5
      vertex 6.63111 -34.2525 21.5
      vertex 17.9813 -37.9404 21.5
    endloop
  endfacet
  facet normal 0 0 1
    outer loop
      vertex 18.5 -35.5 21.5
      vertex 6.63111 -34.2525 21.5
      vertex 18.3689 -36.7475 21.5
    endloop
  endfacet
  facet normal 0 0 1
    outer loop
      vertex 18.3689 -34.2525 21.5
      vertex 6.63111 -34.2525 21.5
      vertex 18.5 -35.5 21.5
    endloop
  endfacet
  facet normal 0 0 1
    outer loop
      vertex 17.9813 -33.0596 21.5
      vertex 6.63111 -34.2525 21.5
      vertex 18.3689 -34.2525 21.5
    endloop
  endfacet
  facet normal 0 0 1
    outer loop
      vertex 17.3541 -31.9733 21.5
      vertex 6.63111 -34.2525 21.5
      vertex 17.9813 -33.0596 21.5
    endloop
  endfacet
  facet normal 0 0 1
    outer loop
      vertex 16.5148 -31.0411 21.5
      vertex 6.63111 -34.2525 21.5
      vertex 17.3541 -31.9733 21.5
    endloop
  endfacet
  facet normal 0 0 1
    outer loop
      vertex 15.5 -30.3038 21.5
      vertex 6.63111 -34.2525 21.5
      vertex 16.5148 -31.0411 21.5
    endloop
  endfacet
  facet normal 0 0 1
    outer loop
      vertex 14.3541 -29.7937 21.5
      vertex 6.63111 -34.2525 21.5
      vertex 15.5 -30.3038 21.5
    endloop
  endfacet
  facet normal 0 0 1
    outer loop
      vertex 13.1272 -29.5329 21.5
      vertex 6.63111 -34.2525 21.5
      vertex 14.3541 -29.7937 21.5
    endloop
  endfacet
  facet normal 0 0 1
    outer loop
      vertex 11.8728 -29.5329 21.5
      vertex 6.63111 -34.2525 21.5
      vertex 13.1272 -29.5329 21.5
    endloop
  endfacet
  facet normal 0 0 1
    outer loop
      vertex 10.6459 -29.7937 21.5
      vertex 6.63111 -34.2525 21.5
      vertex 11.8728 -29.5329 21.5
    endloop
  endfacet
  facet normal 0 0 1
    outer loop
      vertex 9.5 -30.3038 21.5
      vertex 6.63111 -34.2525 21.5
      vertex 10.6459 -29.7937 21.5
    endloop
  endfacet
  facet normal 0 0 1
    outer loop
      vertex 8.48522 -31.0411 21.5
      vertex 6.63111 -34.2525 21.5
      vertex 9.5 -30.3038 21.5
    endloop
  endfacet
  facet normal 0 0 1
    outer loop
      vertex 7.6459 -31.9733 21.5
      vertex 6.63111 -34.2525 21.5
      vertex 8.48522 -31.0411 21.5
    endloop
  endfacet
  facet normal 0 0 1
    outer loop
      vertex 7.01873 -33.0596 21.5
      vertex 6.63111 -34.2525 21.5
      vertex 7.6459 -31.9733 21.5
    endloop
  endfacet
  facet normal -1 0 0
    outer loop
      vertex 0 -67 0
      vertex 0 -67 9.5
      vertex 0 -1.5 0
    endloop
  endfacet
  facet normal -1 0 0
    outer loop
      vertex 0 -1.5 0
      vertex 0 -67 9.5
      vertex 0 -1.5 9.5
    endloop
  endfacet
  facet normal 0 -1 0
    outer loop
      vertex 0 -67 9.5
      vertex 0 -67 0
      vertex 25 -67 0
    endloop
  endfacet
  facet normal 0 -1 0
    outer loop
      vertex 25 -67 9.5
      vertex 0 -67 9.5
      vertex 25 -67 0
    endloop
  endfacet
  facet normal 0 0 -1
    outer loop
      vertex 0 -67 0
      vertex 0 -1.5 0
      vertex 25 -67 0
    endloop
  endfacet
  facet normal 0 0 -1
    outer loop
      vertex 25 -67 0
      vertex 0 -1.5 0
      vertex 25 -1.5 0
    endloop
  endfacet
  facet normal 0 1 0
    outer loop
      vertex 0 -1.5 0
      vertex 0 -1.5 9.5
      vertex 25 -1.5 0
    endloop
  endfacet
  facet normal 0 1 0
    outer loop
      vertex 25 -1.5 0
      vertex 0 -1.5 9.5
      vertex 25 -1.5 9.5
    endloop
  endfacet
  facet normal 0 0 1
    outer loop
      vertex 0 -1.5 9.5
      vertex 0 -67 9.5
      vertex 25 -67 9.5
    endloop
  endfacet
  facet normal 0 0 1
    outer loop
      vertex 25 -1.5 9.5
      vertex 0 -1.5 9.5
      vertex 25 -67 9.5
    endloop
  endfacet
  facet normal 1 0 0
    outer loop
      vertex 25 -67 9.5
      vertex 25 -67 0
      vertex 25 -1.5 0
    endloop
  endfacet
  facet normal 1 0 0
    outer loop
      vertex 25 -1.5 9.5
      vertex 25 -67 9.5
      vertex 25 -1.5 0
    endloop
  endfacet
endsolid OpenSCAD_Model
